<?xml version="1.0" encoding="UTF-8"?>
<svg xmlns="http://www.w3.org/2000/svg" version="1.1" xmlns:svg="http://www.w3.org/2000/svg" viewBox="0 0 756 768" height='100' width='100'>
  <defs>
    <style>
      .cls-1 {
        fill: #fff;
      }
    </style>
  </defs>
  <!-- Generator: Adobe Illustrator 28.6.0, SVG Export Plug-In . SVG Version: 1.2.0 Build 709)  -->
  <g>
    <g id="svg109">
      <path id="path28" d="M582.6,90.8c-51.7-29-131.3-69.3-194.4-69.3-101.4,0-183.1,14.5-249.3,81.7C72.7,170.4,14.8,291.4,22,393.8c5.2,49.6,14.5,98.3,29,144.8,23.8,86.9,79.6,129.3,159.3,168.6,48.6,23.8,134.5,39.3,191.3,39.3s125.1-26.9,181-55.8c75.5-39.3,152-146.9,152-283.4s-38.3-253.4-152-316.5h0Z"/>
      <path id="path30" class="cls-1" d="M605.3,298.7c0-1-2.1-5.2-5.2-3.1,0,0-30,20.7-47.6,6.2-4.1-3.1-4.1-13.4-4.1-27.9s-2.1-166.5-2.1-166.5v-2.1c0-1,0-2.1-1-3.1-1-1-2.1-1-3.1-1h-39.3c-2.1,0-3.1,1-3.1,3.1v2.1s-1,101.4-1,141.7-36.2,61-75.5,61-34.1-8.3-39.3-24.8h5.2c54.8,0,87.9-21.7,86.9-56.9v-3.1c-2.1-27.9-27.9-48.6-62.1-48.6-38.3-2.1-72.4,25.9-77.6,64.1-3.1-1-7.2-2.1-10.3-3.1-6.2-37.2-32.1-61-65.2-61-14.5-1-29,4.1-40.3,13.4l-1-84.8c0-1,0-2.1-1-2.1-1-1-2.1-1-2.1-1h-39.3c-2.1,0-3.1,1-3.1,3.1l4.1,226.5c0,1,1,3.1,2.1,3.1h1c19.7,10.3,41.4,15.5,64.1,15.5,47.6,0,77.6-27.9,82.7-74.5,2.1,1,5.2,1,7.2,2.1,1,20.7,11.4,40.3,27.9,53.8,16.5,12.4,37.2,19.7,57.9,18.6,32.1-1,63.1-12.4,86.9-34.1,6.2,20.7,25.9,34.1,46.5,33.1,18.6,0,36.2-5.2,51.7-14.5,2.1-1,3.1-3.1,2.1-5.2l-3.1-30ZM243.3,308c-6.2,0-13.4-2.1-18.6-5.2v-38.3c0-30,11.4-46.5,30-46.5s25.9,11.4,27.9,33.1c1,23.8-1,56.9-39.3,56.9h0ZM384,245.9c3.1-16.5,15.5-32.1,31-32.1s15.5,3.1,16.5,11.4c0,5.2-1,11.4-14.5,16.5-10.3,3.1-21.7,5.2-33.1,4.1h0Z"/>
      <path id="path32" class="cls-1" d="M617.7,206.6c-1-9.3-4.1-17.6-9.3-24.8-5.2-8.3-15.5-12.4-24.8-11.4-7.2,1-12.4,7.2-12.4,15.5s5.2,16.5,13.4,18.6c7.2,3.1,12.4,8.3,15.5,14.5,4.1,7.2,5.2,15.5,3.1,23.8v2.1h2.1c9.3-11.4,13.4-24.8,12.4-38.3h0Z"/>
      <path id="path34" class="cls-1" d="M674.6,227.3l-1-1c-31-1-57.9,20.7-63.1,50.7v1l1,1h1c60,2.1,62.1-50.7,62.1-51.7,1,1,0,0,0,0Z"/>
      <path id="path50" class="cls-1" d="M547.4,403.1c3.1-1,6.2-1,9.3,0,1,1,2.1,0,2.1-1,1-3.1,3.1-10.3,3.1-11.4,0-2.1,1-2.1-1-2.1-7.2-2.1-14.5-2.1-21.7,1-2.1,1-5.2,3.1-6.2,5.2-2.1,2.1-3.1,4.1-4.1,7.2-1,3.1-1,6.2-1,10.3h-6.2c-1,0-1,2.1-1,2.1v13.4s0,1,1,1h6.2l1,37.2s0,2.1,1,2.1,12.4-1,14.5-1,1-2.1,1-2.1l-1-36.2s11.4-1,12.4-1,1,0,1-2.1v-12.4s0-1-1-1h-13.4c0-4.1,1-7.2,4.1-9.3h0ZM614.6,412.4c-3.1-2.1-6.2-4.1-9.3-5.2-7.2-2.1-15.5-2.1-21.7,1-3.1,2.1-6.2,4.1-8.3,6.2-2.1,3.1-4.1,6.2-5.2,9.3-1,4.1-2.1,8.3-2.1,12.4s1,8.3,2.1,11.4c1,3.1,3.1,6.2,6.2,9.3,3.1,2.1,6.2,4.1,9.3,5.2,3.1,1,7.2,2.1,11.4,1,4.1,0,7.2-1,11.4-3.1,3.1-2.1,6.2-4.1,8.3-6.2,2.1-3.1,4.1-6.2,5.2-10.3s2.1-8.3,2.1-12.4-1-8.3-3.1-11.4c-2.1-2.1-4.1-5.2-6.2-7.2ZM605.3,440.4c0,1-1,3.1-2.1,4.1l-3.1,3.1c-3.1,1-6.2,2.1-8.3,1-1-1-2.1-1-3.1-2.1-1-1-2.1-3.1-2.1-4.1-1-2.1-1-3.1-1-5.2,0-3.1,1-7.2,2.1-10.3,2.1-2.1,5.2-4.1,7.2-4.1s3.1,0,4.1,1c1,1,2.1,1,3.1,2.1,1,1,2.1,2.1,2.1,4.1,1,2.1,1,3.1,1,5.2,1,1,1,3.1,0,5.2h0ZM670.5,404.2c-7.2-2.1-14.5-1-19.7,3.1v-2.1s-13.4,1-15.5,1-1,1-1,1c0,0,2.1,51.7,2.1,53.8s1,2.1,1,2.1c0,0,12.4-1,14.5-1s1-1,1-2.1-1-24.8-1-24.8c0-2.1,0-4.1,1-7.2,0-1,1-3.1,2.1-4.1s2.1-2.1,3.1-2.1c3.1-1,6.2-1,8.3-1s2.1,0,2.1-1,3.1-11.4,3.1-12.4c0-2.1,0-3.1-1-3.1h0ZM380.9,454.8l-5.2,1c-3.1,0-3.1-4.1-3.1-5.2l-1-47.6q0-1-1-1s-27.9-3.1-32.1-3.1-10.3,1-14.5,3.1-8.3,5.2-11.4,8.3c-3.1,4.1-5.2,8.3-7.2,12.4-2.1,5.2-2.1,10.3-2.1,15.5s1,10.3,3.1,15.5c2.1,4.1,4.1,8.3,7.2,12.4,3.1,3.1,7.2,6.2,11.4,8.3s9.3,3.1,13.4,3.1,5.2,0,8.3-1c2.1-1,5.2-2.1,7.2-3.1,1-1,2.1-1,3.1-2.1,5.2,6.2,19.7,4.1,21.7,4.1s2.1,0,2.1-2.1v-15.5c1-2.1,0-2.1,0-3.1h0ZM349.9,450.7c-1,1-2.1,2.1-4.1,3.1-3.1,2.1-7.2,2.1-11.4,0-2.1-1-3.1-2.1-4.1-3.1-1-2.1-2.1-3.1-3.1-5.2-1-2.1-1-5.2-1-7.2s0-5.2,1-7.2,2.1-4.1,3.1-5.2c1-1,2.1-2.1,4.1-3.1,2.1-1,3.1-1,5.2-1s4.1,0,6.2,1c1,0,2.1,1,3.1,1l1,26.9ZM497.8,466.2c-11.4,6.2-15.5,5.2-17.6,4.1-1-1-2.1-2.1-2.1-6.2,1-53.8,0-64.1,0-69.3s-1-1-1-1l-23.8,1c-1,0-2.1,0-2.1,1,0,9.3,1,43.4,0,64.1-1,23.8,12.4,31,16.5,33.1l12.4,3.1h10.3c3.1,0,5.2-1,8.3-2.1l5.2-2.1c0-3.1-4.1-18.6-6.2-25.9ZM436.7,466.2c-11.4,6.2-15.5,2.1-16.5,1-1-1-2.1-2.1-2.1-6.2,1-53.8,1-80.7,1-85.8s-1-1-1-1l-23.8,1c-1,0-2.1,0-2.1,1v80.7c-1,23.8,12.4,31,16.5,33.1,4.1,1,8.3,2.1,12.4,3.1h10.3c3.1,0,5.2-1,8.3-2.1l5.2-2.1c-1-3.1-5.2-16.5-8.3-22.8q1,0,0,0h0ZM102.2,360.1c-7.2,10.3-12.4,23.8-12.4,37.2h-9.3s-1,0-1,1,1,16.5,1,15.5c0,0,0,1,1,1h6.2c0,21.7,3.1,42.4,8.3,63.1l1,1c5.2-1,10.3-2.1,17.6-3.1,1,0,1-1,1-1-6.2-20.7-8.3-41.4-7.2-61h14.5s1,0,1-1,1-14.5,1-15.5,0-1-1-1h-13.4c0-8.3,2.1-17.6,7.2-23.8,3.1-4.1,13.4-4.1,16.5-2.1q1,0,2.1-1c1-3.1,3.1-11.4,3.1-12.4s0-2.1-1-2.1c-11.4-6.2-26.9-5.2-36.2,5.2h0ZM243.3,405.2v-3.1h-19.7c-1,0-2.1,1-2.1,2.1v67.2c0,1,1,1,2.1,1h18.6c1,0,1-1,1-2.1v-29c0-4.1,0-14.5,8.3-18.6,4.1-1,8.3-1,11.4,1,1,0,2.1,0,2.1-1s5.2-16.5,5.2-18.6,0-1-2.1-2.1c-7.2-3.1-17.6-2.1-24.8,3.1ZM196.8,411.4c-3.1-3.1-7.2-6.2-11.4-7.2-9.3-3.1-18.6-3.1-26.9,0-4.1,2.1-8.3,4.1-11.4,7.2s-6.2,7.2-7.2,11.4c-2.1,5.2-3.1,10.3-3.1,15.5s1,10.3,3.1,14.5,4.1,8.3,7.2,11.4,7.2,6.2,11.4,7.2c4.1,2.1,9.3,3.1,13.4,3.1s9.3-1,13.4-3.1c4.1-2.1,8.3-4.1,11.4-7.2,3.1-3.1,6.2-7.2,7.2-11.4,2.1-5.2,3.1-9.3,3.1-14.5s-1-10.3-3.1-14.5c-2.1-5.2-4.1-9.3-7.2-12.4h0ZM185.4,445.5c-1,2.1-2.1,4.1-3.1,5.2s-3.1,2.1-4.1,3.1c-2.1,1-4.1,1-6.2,1s-4.1,0-5.2-1c-2.1-1-3.1-2.1-5.2-4.1-1-2.1-2.1-3.1-3.1-6.2-1-2.1-1-5.2-1-7.2,0-5.2,1-9.3,4.1-13.4,3.1-3.1,6.2-4.1,10.3-4.1s4.1,0,5.2,1c2.1,1,3.1,2.1,5.2,4.1,1,2.1,2.1,3.1,3.1,5.2s1,4.1,1,7.2-1,6.2-1,9.3Z"/>
      <path id="path52" class="cls-1" d="M291.9,631.7c91,63.1,174.8,6.2,190.3-4.1,1-1,3.1,0,4.1,1l11.4,15.5c1,1,1,3.1-1,4.1-31,22.8-68.3,34.1-106.5,34.1-41.4-2.1-75.5-11.4-105.5-38.3-1-1-1-3.1,0-5.2,4.1-7.2,1-3.1,4.1-6.2-1-4.1,1-3.1,3.1-1ZM242.3,485.9c-6.2-1-12.4,0-17.6,1-5.2,2.1-10.3,4.1-15.5,8.3-4.1,4.1-8.3,8.3-11.4,14.5s-5.2,12.4-6.2,18.6-1,13.4,1,20.7c1,6.2,4.1,11.4,7.2,15.5,3.1,4.1,7.2,8.3,12.4,11.4s10.3,4.1,15.5,5.2c6.2,1,12.4,0,17.6-2.1-1,6.2-1,38.3-31,30-11.4-3.1-24.8-21.7-27.9-29,0-1-1-1-2.1,0-1,1-15.5,17.6-15.5,17.6v2.1c10.3,18.6,26.9,32.1,47.6,38.3,25.9,4.1,48.6-6.2,54.8-57.9,4.1-30,11.4-85.8,11.4-85.8,0,0-35.2-8.3-40.3-8.3h0ZM248.5,553.1c-2.1,1-4.1,2.1-6.2,3.1-3.1,1-6.2,1-9.3,1s-5.2-1-7.2-2.1c-2.1-1-4.1-3.1-5.2-5.2-2.1-2.1-3.1-5.2-3.1-8.3-1-3.1-1-7.2,0-10.3,0-3.1,1-7.2,3.1-10.3,1-2.1,3.1-5.2,5.2-7.2s4.1-3.1,6.2-3.1c2.1-1,5.2-1,7.2-1,3.1,0,6.2,1,9.3,3.1,2.1,1,3.1,2.1,4.1,3.1l-4.1,37.2ZM371.6,545.9c-4.1-4.1-8.3-7.2-13.4-9.3s-11.4-3.1-16.5-3.1-11.4,1-16.5,3.1-9.3,5.2-13.4,9.3-7.2,9.3-9.3,14.5c-2.1,6.2-3.1,12.4-3.1,18.6s1,12.4,3.1,17.6c2.1,5.2,5.2,10.3,9.3,14.5s8.3,7.2,13.4,9.3,11.4,3.1,16.5,3.1,11.4-1,16.5-3.1,9.3-5.2,13.4-9.3c4.1-4.1,7.2-9.3,9.3-14.5,2.1-6.2,3.1-12.4,3.1-18.6s-1-12.4-3.1-18.6c-2.1-5.2-5.2-9.3-9.3-13.4h0ZM359.2,587.2c-1,2.1-2.1,5.2-4.1,7.2s-3.1,3.1-6.2,4.1c-2.1,1-5.2,2.1-8.3,1-2.1,0-5.2-1-7.2-2.1-2.1-1-4.1-3.1-6.2-5.2s-3.1-4.1-4.1-7.2-1-6.2-1-9.3c0-6.2,1-11.4,5.2-16.5,3.1-4.1,8.3-6.2,13.4-5.2,2.1,0,5.2,1,7.2,2.1,2.1,1,4.1,3.1,6.2,5.2,2.1,2.1,3.1,4.1,4.1,7.2,1,3.1,1,6.2,1,9.3,1,3.1,1,6.2,0,9.3h0ZM469.8,538.6c-4.1-4.1-8.3-7.2-13.4-9.3s-11.4-3.1-16.5-3.1-11.4,1-16.5,3.1-9.3,5.2-13.4,9.3c-4.1,4.1-7.2,9.3-9.3,14.5-2.1,6.2-3.1,12.4-3.1,18.6s1,12.4,3.1,17.6,5.2,10.3,9.3,14.5,8.3,7.2,13.4,9.3,11.4,3.1,16.5,3.1,11.4-1,16.5-3.1,9.3-5.2,13.4-9.3c4.1-4.1,7.2-9.3,9.3-14.5,2.1-6.2,3.1-12.4,3.1-18.6s-1-12.4-3.1-18.6c-3.1-5.2-6.2-9.3-9.3-13.4h0ZM456.4,581c-1,2.1-2.1,5.2-4.1,7.2s-3.1,3.1-6.2,4.1c-2.1,1-5.2,2.1-8.3,1-2.1,0-5.2-1-7.2-2.1-2.1-1-4.1-3.1-6.2-5.2-2.1-2.1-3.1-4.1-4.1-7.2-1-3.1-1-6.2-1-9.3,0-6.2,1-11.4,5.2-16.5,3.1-4.1,8.3-6.2,13.4-5.2,2.1,0,5.2,1,7.2,2.1,2.1,1,4.1,3.1,6.2,5.2,2.1,2.1,3.1,4.1,4.1,7.2,1,3.1,1,6.2,1,9.3,2.1,2.1,1,6.2,0,9.3h0ZM582.6,619.3c2.1,0,3.1-1,4.1-2.1,1-2.1,8.3-16.5,8.3-18.6s0-2.1-1-2.1l-6.2-1c-3.1-1-3.1-3.1-3.1-7.2s18.6-102.4,19.7-104.5q0-1-1-2.1c-1,0-21.7-3.1-23.8-3.1s-1,0-2.1,2.1c0,2.1-7.2,37.2-7.2,38.3v1l-1-1c-5.2-3.1-10.3-5.2-16.5-6.2s-12.4,0-17.6,1c-6.2,2.1-11.4,5.2-15.5,8.3-5.2,4.1-9.3,9.3-12.4,14.5-3.1,6.2-6.2,12.4-7.2,19.7-1,7.2-1,13.4,0,20.7,1,6.2,3.1,11.4,6.2,16.5s7.2,9.3,12.4,12.4,10.3,5.2,16.5,6.2c7.2,1,13.4,0,20.7-2.1,2.1-1,4.1-2.1,5.2-3.1h1v1c3.1,10.3,20.7,11.4,20.7,11.4h0ZM558.8,584.1c-2.1,1-4.1,3.1-6.2,3.1s-3.1,1-4.1,1c-4.1,0-8.3-1-11.4-3.1-2.1-1-4.1-3.1-5.2-6.2-1-2.1-2.1-5.2-3.1-8.3v-10.3c1-3.1,2.1-7.2,3.1-10.3s3.1-5.2,5.2-7.2,4.1-3.1,7.2-4.1c3.1-1,5.2-1,8.3-1s6.2,2.1,8.3,4.1c2.1,1,3.1,3.1,4.1,5.2l-6.2,37.2Z"/>
    </g>
  </g>
</svg>