<?xml version="1.0" encoding="UTF-8"?>
<svg id="Layer_1" xmlns="http://www.w3.org/2000/svg" viewBox="0 0 246 42.35" height='100' width='100'>
  <path id="Path_53" d="M218.15,41.51h7.53c.51-.83,5.66-8.37,6.22-9.23l6.4,9.23h7.7l-10.05-14.04,9.68-13.52h-7.48l-6,8.83c-.51-.79-5.54-7.98-6.06-8.83h-7.8l9.85,13.64-9.99,13.92ZM214.89,31.89c-.91,2.72-2.94,4.81-6.9,4.81-4.06.08-7.42-3.13-7.53-7.19h20.14c.14-.69.19-1.39.17-2.09,0-8.72-4.99-14.32-13.48-14.32-6.96,0-13.41,5.82-13.41,14.49,0,9.34,6.65,14.77,14.12,14.77,6.65,0,10.98-3.9,12.46-8.72l-5.59-1.75ZM200.63,24.7c.28-3.49,3.22-6.17,6.73-6.11,4.53,0,6.65,2.88,6.8,6.11h-13.53ZM192.26.53h-6.4v16.62c-.83-1.75-3.28-3.96-8.09-3.96-7.75,0-13.13,6.51-13.13,14.43s5.32,14.55,13.24,14.55c3.27.15,6.36-1.48,8.09-4.24.01,1.2.11,2.4.28,3.59h6.28c-.19-1.67-.28-3.35-.28-5.03V.53ZM171.21,27.64c0-5.27,3.16-8.6,7.48-8.6s7.24,3.28,7.24,8.54-3.01,8.83-7.31,8.83-7.41-3.51-7.41-8.77M145.39,25.61c0-3.62,1.99-6.53,5.73-6.53,4.15,0,5.66,2.72,5.66,6.11v16.32h6.56v-17.45c0-6.06-3.22-10.93-9.97-10.93-3.33-.11-6.45,1.61-8.15,4.47v-3.66h-6.39v27.57h6.55v-15.9ZM131.27,31.89c-.91,2.72-2.94,4.81-6.9,4.81-4.06.08-7.42-3.13-7.53-7.19h20.15c.14-.69.19-1.39.17-2.09,0-8.72-4.99-14.32-13.48-14.32-6.95,0-13.41,5.82-13.41,14.49,0,9.34,6.65,14.77,14.12,14.77,6.65,0,10.98-3.9,12.46-8.72l-5.6-1.75ZM117.01,24.7c.28-3.49,3.22-6.17,6.73-6.11,4.53,0,6.65,2.88,6.8,6.11h-13.53ZM74.01,41.51v-16.36c0-3.51,2.21-6.07,5.75-6.07,3.74,0,5.32,2.49,5.32,5.66v16.77h6.45v-16.36c0-3.4,2.27-6.11,5.72-6.11,3.68,0,5.32,2.43,5.32,5.66v16.81h6.27v-17.89c0-7.29-4.75-10.47-9.73-10.47-3.66-.21-7.13,1.68-8.94,4.87-1.48-3.22-4.64-4.87-8.27-4.87-3.12,0-6.56,1.47-8.15,4.3v-3.51h-6.25v27.57h6.51ZM51.58,13.09c-8.2,0-14.26,6.17-14.26,14.6s6.03,14.64,14.23,14.64,14.32-6.18,14.32-14.65-6.06-14.59-14.32-14.59M51.55,36.47c-4.01,0-7.69-3.06-7.69-8.77s3.68-8.62,7.69-8.62,7.7,2.94,7.7,8.66-3.59,8.74-7.7,8.74M28.35,4.27c0,2.36,1.91,4.27,4.27,4.27,2.36,0,4.27-1.91,4.27-4.27C36.89,1.91,34.98,0,32.62,0c0,0,0,0,0,0C30.26,0,28.35,1.91,28.35,4.27h0M35.87,13.94h-6.51v27.57h6.51V13.94ZM6.74,35.73v-11.67h7.13c4.15,0,6.5,2.43,6.5,5.88s-2.66,5.77-6.73,5.77l-6.9.02ZM6.74,18.36V7.15h6c4.15,0,6.51,2.21,6.51,5.6s-2.38,5.61-6.34,5.61h-6.16ZM0,1.38v40.13h14.83c7.48,0,12.46-4.64,12.46-11.09.13-4.47-2.85-8.44-7.19-9.57,3.65-1.29,6.05-4.79,5.94-8.66,0-6.28-4.53-10.8-12.22-10.8H0Z"/>
</svg>