<?xml version="1.0" encoding="UTF-8"?>
<svg xmlns="http://www.w3.org/2000/svg" version="1.1" viewBox="0 0 582.6 180.3" height='100' width='100'>
  <!-- Generator: Adobe Illustrator 28.6.0, SVG Export Plug-In . SVG Version: 1.2.0 Build 709)  -->
  <g>
    <g id="Layer_1">
      <path d="M87.4,6.6C42.5,6.6,5.9,43.2,5.9,88.1s14.6,53.5,36.7,68.1v-47.7h-8.2v32.6c-3.9-4.8-8.1-10.8-11.5-16.6-6.2-10.8-9.4-22.6-9.4-36.3C13.5,46.9,46.6,13.5,87.4,13.5s73.9,33.4,73.9,74.6-3.4,25.5-9.6,36.5c-3.3,5.7-7.5,11.6-11.5,16.5v-32.6h-8.1v47.7c22.1-14.6,36.7-39.6,36.7-68.1,0-44.9-36.5-81.5-81.5-81.5h0ZM337.2,10.9l-10.8,2.2v2.9l4.8,1v52.3l-5,1v3.4h17.3v-3.6l-4.1-.9v-27.6c2.4-2.1,4.8-3.8,8.1-3.8,4.8,0,4.8,5,4.8,8.4v23.2l-4.1.9v3.4h17.2v-3.6l-4.5-.9v-26.9c0-6.2-3.4-10.6-10.3-10.6s-8.1,2.6-11.1,5V10.9h-2.2ZM411.2,10.9c-2.9,0-5.5,2.4-5.5,5.5,0,3.1,2.6,5.5,5.7,5.5s5.5-2.4,5.5-5.5-2.6-5.5-5.7-5.5h0ZM221.2,14.3c-3.8,0-7.4.5-11.2.5h-10.5v3.6l5.8,1v49.9l-5.8,1v3.4h9.9c2.1,0,11.3.2,13.2.2,4.8,0,12.9.2,17.5-7.7,1.2-2.2,2.1-5,1.9-8.2,0-4.1-1.4-7.9-4.3-11-2.7-2.9-5.8-3.9-9.3-4.6,4.3-1.9,10.3-5.8,10.3-14.1s-1.4-6.9-3.6-9.4c-4.3-4.6-10.8-4.6-14.1-4.6h0ZM219.6,18.1c3.1,0,9.3,1.4,9.3,11.3s-6.7,11.5-10.6,11.5h-4.3v-21.8c2.1-.7,3.3-1,5.7-1h0ZM87.4,24.3l-24.9,19.4,4.5,5.8,20.4-15.8,20.4,15.8,4.4-5.8-24.9-19.4h0ZM266.6,31c-12,0-17,12.3-17,22.5s7.2,21.3,16.5,21.3,17.3-7.7,17.3-22.3-11.8-21.4-16.8-21.4h0ZM306.2,31.1c-12.4,0-15.6,13.2-15.6,22.8s5.3,20.8,15.4,20.8c7.9,0,11.3-3.3,14.8-9.9l-3.8-1.6c-1.7,2.7-4.1,5.5-7.7,5.5-8.4,0-9.8-9.6-10.1-16.5h21.8c-.2-10.1-2.1-21.1-14.7-21.1h0ZM488.8,31.1c-8.2,0-14.7,5.7-14.7,14.2s4.3,10.1,7,11.8c-4.5,2.7-7.9,5.7-7.9,8.9s2.1,4.6,4.8,5.5c-2.9,2.1-6.5,4.6-6.5,8.9,0,6.3,7.9,8.7,15.1,8.7,13.2,0,20.6-6.5,20.6-14.4s-4.5-10.1-11.8-10.3l-11-.4c-.7,0-2.9-.5-2.9-1.9s1.5-2.4,3.1-3.6c1.5.3,3.4.7,5,.7,6,0,14.2-4.3,14.2-13.9s-1.2-5.7-3.1-8.4l6.9.2v-5.1l-9.8.3c-2.9,0-5.8-1.4-8.9-1.4h0ZM528.8,31.1c-12.3,0-15.6,13.2-15.6,22.8s5.3,20.8,15.4,20.8,11.3-3.3,14.7-9.9l-3.8-1.6c-1.7,2.7-4.1,5.5-7.7,5.5-8.4,0-9.8-9.6-10.1-16.5h21.8c-.2-10.1-2.1-21.1-14.8-21.1h0ZM438.2,31.5l-10.6,2.8v3.4l5,.5v31.2l-5,1v3.4h17.7v-3.6l-4.3-.9v-28c2.2-2.1,4.8-3.9,7.9-3.9,4.8,0,4.8,5,4.8,7v25l-4.5.9v3.4h17.3v-3.6l-4.5-.9v-26.9c0-6.7-3.4-10.8-10.4-10.8s-7.9,2.4-11,5v-5.2h-2.4ZM561.9,31.5l-10.5,2.7v2.8l5,.9v31.6l-5,1v3.4h19v-3.6l-6-.9v-22.5c0-1.4,1.9-5.7,5.3-7.2l4.5,2.4c1.4-1.2,3.3-2.6,3.3-5.2s-2.2-5-5-5-5.5,2.8-8.2,7.4v-7.9h-2.4,0ZM382.4,31.5l-10.5,2.7v2.7l5,.9v31.6l-5,1v3.4h19v-3.6l-6-.9v-22.5c0-1.4,2.1-5.7,5.5-7.2l4.5,2.4c1.2-1.2,3.3-2.6,3.1-5.1,0-3.4-2.2-5-4.8-5s-5.7,2.8-8.4,7.4v-7.9h-2.4,0ZM414.1,31.8l-10.8,2.7v2.9l4.5,1v30.9l-4.5,1v3.4h17.7v-3.6l-4.8-.9V31.8h-2.1,0ZM488.7,34.9c5.5,0,6,6.2,6,10.8s-.7,9.6-5.7,9.6-6-5.7-6-10.3.3-10.1,5.7-10.1h0ZM266.8,35.1c6.2,0,7.4,10.1,7.4,17.1s-.7,18.2-8.1,18.2-7.4-6.7-7.4-16.8.3-18.5,8.1-18.5h0ZM306.4,35.3c5.1,0,5.7,7.7,5.8,12.9h-13c.5-5.2,1.7-12.9,7.2-12.9h0ZM529,35.3c5.1,0,5.7,7.7,5.8,12.9h-13c.5-5.1,1.7-12.9,7.2-12.9h0ZM214,45h3.8c5.8,0,14.6.9,14.6,12.5,0,4.5-1.5,8.8-5.3,10.8-2.2,1.4-5.1,2.1-7.6,2.1s-3.9-.3-5.5-1.4v-24h0ZM83.3,55.5v113.9c1.4,0,2.7.2,4.1.2s2.7-.2,3.9-.2V55.5h-8.1,0ZM67,55.5v111.5c2.9.9,5.3,1.4,8.1,1.7V55.5h-8.1ZM99.6,55.5v113.4c2.7-.5,5.7-1.2,8.1-1.9V55.5h-8.1ZM482.8,72.3c8.7.5,12.3,1,15.3,1.5,1.7.3,2.9,1.2,2.9,4.1s-5.5,6.7-12.5,6.7-8.9-2.1-8.9-5.8,1.7-5,3.3-6.5h0ZM358.7,98.4l-10.8,2.4v2.9l4.8.5v52.8l-5,1v3.4h17.7v-3.6l-4.5-1v-58.5h-2.2,0ZM382.9,98.4l-10.8,2.4v2.9l4.8.9v52.5l-5,1v3.4h17.5v-3.6l-4.3-1v-27.4c2.4-2.1,4.8-3.9,8.1-3.9,5,0,4.8,5,4.8,8.4v23.3l-4.1.9v3.4h17.2v-3.6l-4.5-1v-26.9c0-6.2-3.4-10.5-10.1-10.5s-8.2,2.4-11.3,5v-26.1h-2.2,0ZM463.6,98.4c-2.9,0-5.7,2.6-5.7,5.7s2.6,5.5,5.7,5.5,5.3-2.6,5.3-5.7-2.2-5.5-5.3-5.5h0ZM199.9,102.3v3.8l5.5.9v50.1l-5.5,1v3.4h19.5v-3.6l-5-1v-49.9l5.1-1v-3.6h-19.7ZM50.7,108.5v52.3c2.6,1.4,5.3,2.6,8.1,3.6v-55.9h-8.1ZM115.9,108.5v56.1c2.7-1.2,5.5-2.4,8.2-3.8v-52.3h-8.2ZM287,118.8c-6.4,0-11.8,3.5-13.8,9h0c-.6,1.6-.9,3.3-.9,5.2,0,7.2,4.3,9.9,7,11.6-4.4,2.7-7.7,5.8-7.7,9.1s1.9,4.5,4.8,5.5c-3.1,1.9-6.7,4.6-6.7,8.9,0,6.4,7.9,8.7,15.1,8.7,13.2,0,20.6-6.5,20.6-14.6s-4.5-9.8-11.8-10.1l-11-.5c-.7,0-2.9-.3-2.9-1.7s1.5-2.6,3.3-3.8c1.5.5,3.3.7,4.8.7,6,0,14.2-4.1,14.2-13.9s-.5-3.6-1.2-5.2c-.5-1-1.1-2-1.9-3l7,.2v-5.2l-9.9.3c-2.9,0-5.8-1.4-8.9-1.4h0ZM327,118.8c-12.3,0-15.6,13.2-15.6,22.8s5.3,20.7,15.4,20.7,11.3-3.3,14.8-9.9l-3.8-1.6c-1.7,2.7-4.1,5.5-7.7,5.5-8.4,0-9.8-9.6-10.1-16.5h21.8c-.2-10.1-2.1-21.1-14.7-21.1h0ZM433.1,118.8c-12.3,0-15.6,13.2-15.6,22.8s5.3,20.7,15.4,20.7,11.3-3.3,14.8-9.9l-3.8-1.6c-1.7,2.7-4.1,5.5-7.7,5.5-8.4,0-9.8-9.6-10.1-16.5h21.8c-.2-10.1-2.1-21.1-14.7-21.1h0ZM490.7,119l-10.8,2.7v2.9l5,.9v31.6l-5,1v3.4h17.3v-3.6l-3.9-1v-27.6c2.1-1.9,4.3-3.9,8-3.9s5.3,3.9,5.3,7.2v24.5l-4.8,1v3.4h17.1v-3.6l-4.1-1v-27.4c2.4-2.2,4.6-4.1,8.1-4.1s5,4.8,5,7v24.7l-4.5,1v3.4h17.8v-3.6l-4.8-1v-27.1h0c0-6.9-4.3-10.3-10.8-10.3s-8.4,2.4-11.7,5.7c-1.7-3.6-5.5-5.5-9.6-5.5s-8.1,1.9-11.5,5v-5.6h-2.2,0ZM236.6,119l-10.6,2.7v3.4l5,.7v31.2l-5,1v3.4h17.7v-3.6l-4.5-1v-27.9c.4-.4.9-.7,1.3-1.1,2-1.5,4.2-2.7,6.7-2.7s3.6,1.2,4.2,2.7c.6,1.5.6,3.2.6,4.3v25l-4.5.9v3.4h17.3v-3.6l-4.5-1v-26.9c0-.7,0-1.4-.1-2.1-.7-5.3-4.1-8.7-10.3-8.7s-7.9,2.6-11,5v-5.1h-2.4,0ZM466.4,119.5l-10.8,2.7v2.8l4.5,1v31l-4.5,1v3.4h17.5v-3.6l-4.6-1v-37.4h-2,0ZM286.8,122.4c3.4,0,5,2.5,5.7,5.4h0c.4,1.8.5,3.8.5,5.5,0,4.1-.7,9.6-5.8,9.6s-5.8-5.8-5.8-10.3,0-3.3.3-4.9h0c.5-2.9,1.8-5.4,5.2-5.4h0ZM327.1,122.9c5.1,0,5.7,7.7,5.8,12.9h-13c.5-5.1,1.7-12.9,7.2-12.9h0ZM433.3,122.9c5.2,0,5.7,7.7,5.8,12.9h-13c.5-5.1,1.7-12.9,7.2-12.9h0ZM281,159.9c8.7.5,12.4.9,15.3,1.5,1.7.3,3.1,1.2,3.1,4.1s-5.5,6.7-12.5,6.7-8.9-2.2-8.9-5.8,1.6-5.1,3.1-6.5h0Z"/>
    </g>
  </g>
</svg>