<?xml version="1.0" encoding="UTF-8"?>
<svg xmlns="http://www.w3.org/2000/svg" version="1.1" viewBox="0 0 478 110.5" height='100' width='100'>
  <!-- Generator: Adobe Illustrator 28.6.0, SVG Export Plug-In . SVG Version: 1.2.0 Build 709)  -->
  <g>
    <g id="Layer_1">
      <g>
        <path d="M390.4,40.5c-1.5,3.6-3,7.5-4.6,11.2-13.4-11.5-32.8-13.3-49.9-9.2-10.3,2.4-21.4,10.8-23.4,22-1.9,11.3.4,22.9,9.6,30,13.1,10,33,10.1,48.8,6.5l4.2-1.6c0-3.1,0-9.5,0-20.9-3.2,0-7.3.3-10.6.6,0-2.6.3-5.3,0-8,8.5,1.2,18.1.7,25.1.9v32c-18.2,4.8-41,7.2-61.2,3.2-13.3-2.5-28.1-11.7-31.6-25.9-3.4-13.1.5-26.5,11.3-34.7,17.3-12.9,41.3-14.1,63.1-11.2,6.7.9,13.3,2.4,19.3,5.1"/>
        <path d="M476.6,36c-.7,2.9-.1,5.3-.1,8.2-7.3-1.1-15.4-1.2-23-1.2h-34.3c0,21.3-.1,14.7-.1,22,18.2.1,36.3-.1,54.6-.4-.5,2.6-.5,5.1-.1,7.6-18.2-.6-36.2,0-54.4,0,0,26.3-.1,18.8,0,27.7,11.2.3,22.3,0,33.5-.1,8.3-.1,17,0,25.2-1.3,0,2.9-.6,6.9.2,9.7h-73.6c0-25.4-.1-48.5,0-72.4,30,0,4.4.2,72.3.2"/>
        <path d="M281.7,37.2v72h-5.9c-22.5-17.9-46.2-36.3-68.8-53.6,0,4.6,0,21.5,0,52.8-3.1-.2-7.3-.5-10.5,0V37c-.1-.1,8,0,8.3,0,2,0,44.4,33.3,66.5,50.4,0-27.1,0-21.4,0-50.2,3.4.4,7.3.1,10.5,0"/>
        <path d="M179.9,36.9v44.1c0,10.1-7,19.7-16.5,24-12.2,5.6-27.1,6.5-41.1,4.2-10.1-1.6-21.5-6.1-25.6-16.9-1.4-3.7-2-7.7-2.1-11.9v-43.5c9,1.1,7.1.6,14.6,0,0,36.5-.2,29.9.3,44.9.2,7.5,4.4,15.8,12.3,18.5,9.8,3.4,22.1,3.9,32.2.6,6.3-2,12.3-8,14.2-14.4.9-3.2,1.1-6.7,1.4-10.2v-39.2c6.3.8,6.7.5,10.4-.2"/>
        <path d="M58.4,76.5c-12.8-4.5-27-2.6-41.3-2.6v28.4c20.2,0,21.7.1,32.1-.6,6.1-.5,12.3-3.1,15.4-8.7,2.2-3.9,1.5-9.7-1.2-13.1-1.4-1.6-3.1-2.7-5-3.4M50.2,44.7c-26-.2-22.5-.3-33.2,0,0,17.9,0,1.4,0,22.1,10.8.1,22.6.5,33.3-1.5,5-.9,11.1-3.5,12.6-9.2.7-3.1.1-6.2-2.2-8.3-2.9-2.4-6.6-3.1-10.3-3.1M71.2,41.9c4.5,2.9,6.2,8.1,5.2,13.2-1.5,8-10.1,12.4-16.7,14.7,7.2,1.2,15.2,2.7,19.3,9.7,3.5,6,2.7,14.8-2,20-9.2,10.1-23.1,9.2-36.2,9.8H0c0-37.4,0-41.1,0-72.4,23.2,0,27.4,0,41.4,0,9.8.1,21.4-.2,29.9,4.9"/>
        <path d="M139.6,0c-6.3,0-12.1,2.1-16.8,5.6h33.5c-4.6-3.5-10.5-5.6-16.8-5.6"/>
        <path d="M167.2,27.7c0-1.1,0-2.3-.2-3.4h-54.9c-.1,1.1-.2,2.2-.2,3.4s0,1.9.1,2.9h55.1c0-.9.1-1.9.1-2.9"/>
        <path d="M139.6,55.4c6.6,0,12.7-2.3,17.4-6.2h-34.8c4.8,3.9,10.8,6.2,17.4,6.2"/>
        <path d="M162.3,11.9h-45.4c-1.3,1.9-2.4,4-3.3,6.2h52c-.8-2.2-1.9-4.3-3.3-6.2"/>
        <path d="M113.4,36.8c.8,2.2,1.8,4.3,3.1,6.2h46.2c1.3-1.9,2.3-4,3.1-6.2h-52.3Z"/>
      </g>
    </g>
  </g>
</svg>