<?xml version="1.0" encoding="utf-8"?>
<!-- Generator: Adobe Illustrator 19.0.0, SVG Export Plug-In . SVG Version: 6.00 Build 0)  -->
<svg version="1.1" id="layer" xmlns="http://www.w3.org/2000/svg" xmlns:xlink="http://www.w3.org/1999/xlink" x="0px" y="0px"
	 viewBox="-153 -46 652 652" style="enable-background:new -153 -46 652 652;" xml:space="preserve" height='100' width='100'>
<path d="M206.5,224.8c13.8,1,21.6,4.3,21.6,4.3c34.2,15.4,2.3,50.5-10.9,59.3c-8.2,5.5-22.5,14.6-48.8,14.6
	c-47.5,0-85.3-38.6-85.3-85.9c0-47,37.8-85.6,85.3-85.6c41.4,0,76,29.2,84.1,68.1l0,0H361c-9-97.7-91.1-174.2-191.2-174.2
	c-106,0-192,85.9-192,192s85.9,192,192,192c105.6,0,191.3-85.3,192-190.7H131.3v3.1L206.5,224.8z"/>
<path d="M18.7,483.5v3c0,20.4-13.3,38.5-37.5,38.5c-24,0-40.1-19.5-40.1-41.6c0-23.1,16.9-41.4,40.2-41.4c12.6,0,24.7,5.4,32.8,15.5
	l-7,6.8c-5.8-7.9-15.8-13.2-25.6-13.2c-17.9,0-29.9,14.1-29.9,31.9c0,17.2,11,32.7,30.2,32.7c15.4,0,25.1-11.3,25.9-23.7h-22v-8.6
	H18.7z M41.4,450.9c0-3.8-3-6.8-6.7-6.8c-3.7,0-6.7,3-6.7,6.8c0,3.7,3,6.6,6.7,6.6C38.4,457.5,41.4,454.6,41.4,450.9 M39.5,472.6
	h-9.8v50.8h9.8V472.6z M57.9,472.6H46.5l25.7,52.8l25.7-52.8H87l-14.7,32.6L57.9,472.6z M326.2,515.8c-3.3,5.3-9.7,9-17.4,9
	c-15.5,0-24.8-12.1-24.8-27c0-13.9,10-26.3,24.8-26.3c7.3,0,13.5,3,17.4,9h0.4v-7.9h9.1v50.8h-9.1v-7.6H326.2z M310,516.4
	c10.8,0,16.5-8.5,16.5-18.5c0-9.9-5.8-18.2-16.5-18.2c-10.1,0-16.1,8.8-16.1,18.2C293.9,507.5,299.6,516.4,310,516.4 M142.6,515.8
	c-3.3,5.3-9.7,9-17.4,9c-15.6,0-24.8-12.1-24.8-27c0-13.9,10-26.3,24.8-26.3c7.2,0,13.5,3,17.4,9h0.4v-7.9h9.1v50.8H143v-7.6H142.6z
	 M126.4,516.4c10.8,0,16.5-8.5,16.5-18.5c0-9.9-5.8-18.2-16.5-18.2c-10.1,0-16.1,8.8-16.1,18.2C110.3,507.5,116.1,516.4,126.4,516.4
	 M246.3,516.4c10.8,0,16.5-8.5,16.5-18.5c0-9.9-5.7-18.2-16.5-18.2c-10.1,0-16.1,8.8-16.1,18.2C230.2,508,235.3,516.4,246.3,516.4
	 M262.2,515.9c-3.2,5.3-10.2,8.9-17.4,8.9c-15.5,0-24.6-12-24.6-26.7c0-14.3,10-26.5,24.5-26.5c7.3,0,13.6,3.2,17.4,9h0.4V434h9.4
	v89.4h-9.4v-7.5H262.2z M166.2,472.6v30.1c0,2.2,0.1,4.6,0.4,6.2c1.8,10.2,9.8,16.2,21.2,16.2c11.4,0,19.4-6,21.2-16.2
	c0.3-1.6,0.4-4,0.4-6.2v-30.1h-9.9v30.7c0,7.8-3.2,13.4-11.7,13.4c-8.5,0-11.7-5.5-11.7-13.4v-30.7H166.2z M362.7,472.6h-9.8v50.8
	h9.8V497c0-2.6,0.1-5.5,0.5-7.7c1.1-5.9,6.1-10,12.6-10c6.4,0,10.1,3.4,10.6,9.8c0.1,1.3,0.1,2.5,0.1,3.6v30.6h9.8v-32.8
	c0-2.1-0.1-4.8-0.5-6.6c-1.8-7.6-7.7-12.7-17.7-12.7c-6.2,0-12.4,3.5-15,7.8h-0.3V472.6z"/>
</svg>
