<?xml version="1.0" encoding="UTF-8"?>
<svg xmlns="http://www.w3.org/2000/svg" version="1.1" xmlns:cc="http://creativecommons.org/ns#" xmlns:dc="http://purl.org/dc/elements/1.1/" xmlns:inkscape="http://www.inkscape.org/namespaces/inkscape" xmlns:rdf="http://www.w3.org/1999/02/22-rdf-syntax-ns#" xmlns:sodipodi="http://sodipodi.sourceforge.net/DTD/sodipodi-0.dtd" xmlns:svg="http://www.w3.org/2000/svg" viewBox="0 0 226.5 52.8" height='100' width='100'>
  <!-- Generator: Adobe Illustrator 28.6.0, SVG Export Plug-In . SVG Version: 1.2.0 Build 709)  -->
  <g>
    <g id="svg4506">
      <sodipodi:namedview id="base" bordercolor="#666666" borderopacity="1.0" fit-margin-bottom="0" fit-margin-left="0" fit-margin-right="0" fit-margin-top="0" inkscape:current-layer="layer1" inkscape:cx="112.25" inkscape:cy="25.399988" inkscape:document-units="mm" inkscape:pageopacity="0.0" inkscape:pageshadow="2" inkscape:window-height="744" inkscape:window-maximized="1" inkscape:window-width="1280" inkscape:window-x="-4" inkscape:window-y="-4" inkscape:zoom="3.5723831" pagecolor="#ffffff" showgrid="false" units="px"/>
      <g id="layer1" inkscape:groupmode="layer" inkscape:label="Layer 1">
        <g id="g4614">
          <path id="path4554" d="M2.1,19.7h5.9v31.3H2.1v-31.3Z" inkscape:connector-curvature="0"/>
          <path id="path4556" d="M17.9,1h6v50h-5.9V1Z" inkscape:connector-curvature="0"/>
          <path id="path4558" d="M34.1,1h6v50h-5.9V1Z" inkscape:connector-curvature="0"/>
          <path id="path4560" d="M76.3,51h-5.9v-4.8h-.1c-1.5,3.3-5.5,5.6-10.3,5.6s-11.4-3.6-11.4-12v-20.2h6v18.5c0,5.9,3.4,8.1,7.1,8.1s8.7-3.2,8.7-10.4v-16.1h6v31.3h-.1Z" inkscape:connector-curvature="0"/>
          <path id="path4562" d="M83.9,19.7h5.6v4.9h.1c.6-1.9,4.4-5.7,10-5.7s7.8,2,9.8,5.8c2.1-3.8,6.2-5.8,9.9-5.8,9.6,0,11.9,6.9,11.9,13.9v18.2h-5.9v-17.4c0-4.8-1-9.1-6.8-9.1s-8,3.9-8,9.5v17.1h-6v-16.4c0-5.9-.9-10.2-6.6-10.2s-8.1,3.2-8.1,10.3v16.3h-5.8v-31.4Z" inkscape:connector-curvature="0"/>
          <path id="path4564" d="M139.4,19.7h6v31.3h-6v-31.3Z" inkscape:connector-curvature="0"/>
          <path id="path4566" d="M154.1,19.7h5.9v4.8h.1c1.5-3.3,5.5-5.6,10.3-5.6s11.4,3.6,11.4,12v20.2h-6v-18.5c0-5.9-3.4-8.1-7.1-8.1s-8.7,3.2-8.7,10.4v16.1h-6v-31.3h0Z" inkscape:connector-curvature="0"/>
          <path id="path4568" d="M209.7,35.9v2c0,4.2-2.3,9.1-8.9,9.1s-6.7-1.5-6.7-5.1,6.9-6,12.5-6h3.1ZM193.2,27.2c2.2-1.7,4.4-3.6,8.9-3.6s7.5,3.4,7.5,6.6v1.3h-4.4c-9.5,0-17.2,2.8-17.2,10.8s5,9.4,10.8,9.4,8.3-1.5,11-5.6h.1c0,1.6.1,3.2.2,4.8h5.3c-.2-1.7-.3-3.5-.3-5.7v-16c0-5.4-3.8-10.4-13.1-10.4s-9.1,1.5-12.4,4.6l3.6,3.8Z" inkscape:connector-curvature="0"/>
          <path id="path4570" d="M5,4.7c-2.2,0-4,1.8-4,4s1.8,4,4,4,4-1.8,4-4-1.8-4-4-4Z" inkscape:connector-curvature="0"/>
          <path id="path4572" d="M219.5,20.7h.9v-2h.7l1.2,2h.9l-1.3-2.1c.7-.1,1.2-.5,1.2-1.3s-.6-1.5-1.7-1.5h-1.9v4.9ZM220.4,16.5h.7c.6,0,1.2,0,1.2.7s-.6.7-1.2.7h-.7v-1.4ZM216.9,18.3c0,2.4,1.9,4.3,4.3,4.3s4.3-1.9,4.3-4.3-1.9-4.3-4.3-4.3-4.3,1.9-4.3,4.3ZM217.6,18.3c0-1.9,1.6-3.5,3.5-3.5s3.5,1.6,3.5,3.5-1.6,3.5-3.5,3.5-3.5-1.6-3.5-3.5Z" inkscape:connector-curvature="0"/>
        </g>
      </g>
    </g>
  </g>
</svg>