<?xml version="1.0" encoding="UTF-8"?>
<svg id="Layer_1" xmlns="http://www.w3.org/2000/svg" viewBox="0 0 300 280" height='100' width='100'>
  <path d="M42.55,96.59c9.97-14.08,15.99-28.75,29.15-41.04C123.81,6.89,227.65,25.21,244.25,100.65h-56.52s-30.91-44.32-71.16-41.88c-40.27,2.45-60.2,18.3-74.02,37.82Z"/>
  <path d="M50.14,100.66s9.21-14.13,19.25-24.13c0,0-6.24,17.08-3.52,24.13h-15.73Z"/>
  <path d="M103.27,195.14s26.57,24.67,71.84,1.08c-1.17.61-2.76,5.14-3.49,6.28-3.38,5.27-7.5,10.09-12.18,14.25-15.17,13.5-41.74,21.58-61.78,14.25-18.01-6.59-34.7-18.84-44.01-35.87h49.62Z"/>
  <path d="M187.86,196.22s-23.59,60.45-98.41,40.66c0,0,45.27,29.92,103.02,3.98,0,0,35.51-20.52,45-44.64h-49.61Z"/>
  <g>
    <path d="M64.44,148.73c-7.34,0-12.96-1.89-16.86-5.66s-5.85-8.96-5.85-15.57c0-4.62.94-8.54,2.84-11.77,1.89-3.23,4.51-5.72,7.86-7.45,3.35-1.73,7.67-2.6,12.94-2.6s9.22.83,12.45,2.49c3.22,1.66,5.71,3.97,7.45,6.92,1.74,2.96,2.61,6.58,2.61,10.88,0,4.66-.95,8.68-2.86,12.07s-4.6,6.02-8.07,7.88c-3.49,1.88-7.65,2.81-12.51,2.81ZM65.58,145.5c4,0,7.19-1.48,9.57-4.44s3.57-7.45,3.57-13.49-1.36-11.19-4.09-14.58c-2.21-2.73-5.61-4.09-10.21-4.09-4.3,0-7.63,1.42-9.98,4.27-2.36,2.85-3.54,7.23-3.54,13.14,0,4.26.65,7.87,1.94,10.83,1.29,2.96,2.94,5.09,4.94,6.39,1.99,1.32,4.59,1.97,7.8,1.97Z"/>
    <path d="M92.41,148.13v-2.51c2.31-.2,3.63-.39,3.97-.57.22-.12.38-.31.48-.57.2-.48.34-2.09.42-4.83.1-4.26.15-7.61.15-10.06,0-3.3-.04-7.5-.12-12.6-.08-3.8-.27-6.13-.57-6.98-.08-.26-.24-.46-.48-.6-.32-.2-1.6-.42-3.85-.66v-2.51c4.12.14,6.78.21,7.97.21l14.95-.21c3.24,0,5.61.31,7.09.94s2.66,1.63,3.52,3.01c.87,1.38,1.3,3.01,1.3,4.87,0,2.38-.69,4.48-2.07,6.27s-3.79,3.39-7.21,4.78l6.36,9.58,4.95,7.34c.94,1.19,1.63,1.92,2.09,2.16.46.25,1.2.38,2.24.4v2.3l-1.76.03c-5.05.04-8.31.1-9.76.18-1.73-2.77-4.32-6.78-7.76-12.03l-6.15-9.34c.18-.34.33-.7.45-1.07.8.1,1.38.15,1.76.15,1.85,0,3.67-.75,5.46-2.24,1.79-1.5,2.69-3.63,2.69-6.4,0-2.41-.71-4.29-2.12-5.62-1.42-1.34-3.54-2-6.37-2-.9,0-2.11.07-3.65.21l-.2,8.81-.25,11.17c0,2.53.1,5.77.3,9.71.16,2.97.32,4.63.47,4.99.12.26.34.47.65.63.42.24,1.76.42,4.04.54v2.51c-3.58-.14-6.75-.21-9.51-.21-2.94.01-6.1.08-9.48.22Z"/>
    <path d="M136.55,148.13v-2.51c2.73-.14,4.27-.37,4.63-.69s.57-1.1.65-2.36c.16-2.63.24-7.52.24-14.69,0-2.75-.04-6.73-.12-11.94-.04-3.56-.12-5.52-.24-5.87-.12-.35-.33-.6-.63-.76-.44-.22-1.95-.41-4.54-.57v-2.51c4.1.14,7.23.21,9.4.21,3.74,0,7.12-.07,10.15-.21v2.51c-2.72.16-4.26.37-4.61.64s-.58.89-.68,1.86c-.16,1.91-.24,5.78-.24,11.61,0,7.76.03,13.17.09,16.22.06,3.05.24,4.87.54,5.45.12.26.37.46.76.61s1.76.3,4.13.46v2.51l-3.52-.09c-2.23-.08-4.22-.12-5.97-.12l-10.04.24Z"/>
    <path d="M183.29,148.73c-7.34,0-12.96-1.89-16.86-5.66s-5.85-8.96-5.85-15.57c0-4.62.94-8.54,2.84-11.77s4.51-5.72,7.86-7.45c3.35-1.73,7.67-2.6,12.94-2.6s9.22.83,12.45,2.49c3.22,1.66,5.7,3.97,7.45,6.92,1.74,2.96,2.61,6.58,2.61,10.88,0,4.66-.95,8.68-2.86,12.07s-4.6,6.02-8.07,7.88c-3.49,1.88-7.65,2.81-12.51,2.81ZM184.43,145.5c4,0,7.19-1.48,9.57-4.44s3.57-7.45,3.57-13.49-1.36-11.19-4.09-14.58c-2.21-2.73-5.61-4.09-10.21-4.09-4.3,0-7.63,1.42-9.98,4.27-2.36,2.85-3.54,7.23-3.54,13.14,0,4.26.65,7.87,1.94,10.83,1.29,2.96,2.94,5.09,4.94,6.39,1.99,1.32,4.6,1.97,7.8,1.97Z"/>
    <path d="M211.17,148.13v-2.51c2.43-.1,3.85-.26,4.27-.48.28-.16.49-.42.63-.78.22-.48.35-2.16.41-5.04.11-4.78.16-8.38.16-10.8l-.06-12.63c0-3.34-.11-5.27-.33-5.79-.12-.3-.31-.52-.56-.66-.4-.24-1.9-.47-4.51-.69v-2.51c3.11.1,5.41.15,6.91.15,1.65,0,3.53-.05,5.64-.15,4.6,5.86,9.79,12.22,15.59,19.08,3.85,4.59,7.18,8.38,9.98,11.37v-11.85c0-4.49-.05-8.36-.15-11.61-.08-1.93-.24-3.12-.48-3.56-.12-.24-.34-.41-.66-.51s-1.71-.24-4.18-.42v-2.51c2.16.1,4.32.15,6.46.15,2.94,0,5.6-.05,7.98-.15v2.51c-2.22.14-3.55.3-4.01.48-.26.1-.46.24-.62.42-.16.18-.28.41-.36.69-.14.48-.22,2.01-.24,4.6l-.11,11.94-.06,12.03c0,3.22.07,6.45.21,9.67l-.39.42c-2.42-.44-4.13-.73-5.13-.87-5.11-5.67-11.29-12.78-18.54-21.35-3.66-4.34-6.62-7.98-8.87-10.95v11.6c0,3.16.05,6.97.15,11.42.06,3.28.2,5.17.42,5.67.08.22.23.39.45.51.38.22,1.81.42,4.3.6v2.51c-3.21-.14-5.51-.21-6.9-.21-1.15,0-3.61.07-7.4.21Z"/>
  </g>
  <g>
    <path d="M55.45,157.49c3.05,0,5.47.55,7.19,1.79,1.72,1.25,2.87,3.23,2.87,6.03,0,6.13-5.24,8.63-9.33,8.63-.46,0-.9-.04-1.16-.08l-2.82-.73v6.41c0,3.53.29,3.63,4.12,4.04v1.25h-11.92v-1.25c3.53-.38,3.75-.61,3.75-4.11v-16.58c0-3.7-.46-3.84-3.75-4.15v-1.25h11.05ZM52.2,171.6c.5.25,1.59.52,2.92.52,2.66,0,6.09-1.38,6.09-6.72,0-4.64-2.94-6.44-6.33-6.44-1.16,0-1.97.21-2.23.49-.33.29-.45.78-.45,1.82,0,0,0,10.33,0,10.33Z"/>
    <path d="M79.69,184.82v-1.22c2.33-.26,2.63-.48,2.63-3.17v-6.99c0-3.44-1.35-5.09-3.95-5.06-1.49,0-3.07.71-4.21,2.01v10.03c0,2.65.31,2.91,2.73,3.17v1.22h-9.32v-1.22c2.37-.22,2.89-.41,2.89-3.2v-20.12c0-2.18-.15-2.71-2.88-2.98v-1.14c2.38-.22,4.98-.84,6.58-1.43v14.1c1.51-1.5,3.77-3.01,6.02-3.01,3.49,0,5.85,2.19,5.85,7.16v7.45c0,2.75.33,2.93,2.69,3.16v1.22h-9.03v.02Z"/>
    <path d="M104.94,185.32c-.72,0-1.65-.34-2.09-.81-.55-.54-.81-1.13-1.02-1.83-1.67,1.12-3.73,2.65-4.94,2.65-3.1,0-5.24-2.54-5.24-5.22,0-2.09,1.11-3.38,3.41-4.19,2.55-.89,5.73-1.97,6.67-2.74v-1.02c0-2.84-1.38-4.48-3.5-4.48-.92,0-1.51.44-1.92.94-.47.6-.74,1.51-1.11,2.74-.23.76-.66,1.05-1.33,1.05-.85,0-1.96-.87-1.96-1.91,0-.62.54-1.13,1.4-1.74,1.34-.95,3.79-2.45,6.18-2.95,1.34,0,2.66.38,3.68,1.15,1.53,1.26,2.17,2.75,2.17,4.93v7.97c0,1.95.71,2.52,1.45,2.52.49,0,1.01-.19,1.48-.44l.43,1.22-3.76,2.16ZM101.72,174.69c-.89.46-2.69,1.26-3.63,1.68-1.55.71-2.47,1.5-2.47,3.03,0,2.25,1.67,3.23,2.94,3.23,1,0,2.35-.56,3.16-1.36,0-1.97,0-4.6,0-6.58Z"/>
    <path d="M120.32,184.82h-9.93v-1.22c2.57-.25,2.82-.46,2.82-3.16v-8.83c0-2.66-.17-2.8-2.52-3.11v-1.1c2.16-.33,4.13-.83,6.22-1.7v4.61c1.55-2.32,3.27-4.49,5.3-4.49,1.56,0,2.49.98,2.49,2.11s-.82,2.13-1.56,2.54c-.45.25-.8.18-1.13-.11-.65-.62-1.16-1.09-1.91-1.09-.84,0-2.3,1.17-3.2,3.21v7.92c0,2.73.23,2.93,3.41,3.19v1.23h0Z"/>
    <path d="M149.84,184.82v-1.22c2.34-.25,2.63-.42,2.63-3.3v-7.07c0-3.07-1.12-4.74-3.49-4.74-1.46,0-2.84.77-4.39,2.03.04.5.12,1.03.12,1.8v8.22c0,2.6.33,2.81,2.58,3.06v1.22h-9.08v-1.22c2.47-.25,2.81-.41,2.81-3.13v-7.31c0-3.09-1.01-4.68-3.39-4.68-1.57,0-3.09,1-4.37,2.02v9.97c0,2.7.29,2.87,2.53,3.13v1.22h-9.15v-1.22c2.69-.26,2.92-.43,2.92-3.16v-8.74c0-2.63-.15-2.84-2.43-3.23v-1.1c2.04-.29,4.1-.84,6.12-1.67v3.36c.89-.67,1.75-1.35,3.01-2.1,1.1-.7,2.04-1.13,3.37-1.13,2.08,0,3.77,1.26,4.61,3.4,1.15-.89,2.2-1.59,3.25-2.3.92-.59,2.1-1.1,3.33-1.1,3.35,0,5.35,2.38,5.35,6.53v8.12c0,2.73.25,2.86,2.58,3.13v1.22h-8.91Z"/>
    <path d="M175.07,185.32c-.72,0-1.65-.34-2.09-.81-.55-.54-.81-1.13-1.02-1.83-1.67,1.12-3.73,2.65-4.94,2.65-3.1,0-5.24-2.54-5.24-5.22,0-2.09,1.11-3.38,3.41-4.19,2.55-.89,5.73-1.97,6.67-2.74v-1.02c0-2.84-1.39-4.48-3.5-4.48-.92,0-1.51.44-1.92.94-.47.6-.74,1.51-1.11,2.74-.23.76-.66,1.05-1.33,1.05-.85,0-1.96-.87-1.96-1.91,0-.62.54-1.13,1.4-1.74,1.34-.95,3.79-2.45,6.17-2.95,1.34,0,2.66.38,3.68,1.15,1.53,1.26,2.18,2.75,2.18,4.93v7.97c0,1.95.71,2.52,1.45,2.52.49,0,1.01-.19,1.48-.44l.43,1.22-3.76,2.16ZM171.85,174.69c-.9.46-2.69,1.26-3.63,1.68-1.54.71-2.47,1.5-2.47,3.03,0,2.25,1.67,3.23,2.94,3.23,1,0,2.35-.56,3.16-1.36v-6.58Z"/>
    <path d="M212.04,177.76c-.27,1.39-1.51,5.78-1.93,7.06h-19.79v-1.25c3.8-.36,4.14-.58,4.14-4.15v-16.57c0-3.57-.42-3.8-3.75-4.12v-1.25h11.6v1.25c-3.35.33-3.8.52-3.8,4.12v16.97c0,2.52.29,3.19,2.67,3.23.05,0,2.88.04,3.12.04,2.19,0,2.82-.3,3.8-1.36,1.01-1.05,1.93-2.75,2.58-4.34l1.36.37Z"/>
    <path d="M222.64,184.79c-.71.37-1.39.53-1.79.53-2.79,0-4.31-1.62-4.31-5.06v-12.14h-2.86l-.18-.51,1.15-1.29h1.9v-3.52c.91-.87,2.28-2.01,3.2-2.88l.62.13c-.08,1.65-.13,4.05-.12,6.27h4.69c.38.42.24,1.41-.27,1.79h-4.42v10.68c0,3.38,1.35,3.97,2.39,3.97.96,0,1.85-.33,2.47-.63l.39,1.17-2.86,1.49Z"/>
    <path d="M247.58,183.76c-.91.17-4.19.67-6.83,1.57v-2.68c-.76.47-1.84,1.07-2.6,1.54-1.56.91-2.6,1.14-3.1,1.14-3.4,0-7.97-3.31-7.97-9.27s5.12-10.24,11.03-10.24c.54,0,1.8.07,2.65.4v-5.94c0-2.61-.28-2.72-3.2-2.98v-1.15c2.22-.29,5.25-.88,6.9-1.43v25.14c0,2.2.29,2.48,1.85,2.59l1.27.09v1.22h0ZM240.75,169.64c-.88-1.42-2.56-2.14-4.19-2.14-1.89,0-5.33,1.26-5.33,7.32,0,5.16,3.14,7.73,5.69,7.78,1.38,0,2.84-.64,3.83-1.37v-11.59Z"/>
    <path d="M253.61,185.39c-1.6,0-2.72-1.16-2.72-2.84s1.12-2.83,2.72-2.83,2.79,1.23,2.79,2.83c0,1.68-1.18,2.84-2.79,2.84Z"/>
  </g>
</svg>