<?xml version="1.0" encoding="UTF-8"?>
<svg xmlns="http://www.w3.org/2000/svg" version="1.1" xmlns:svg="http://www.w3.org/2000/svg" viewBox="0 0 744.1 403.2" height='100' width='100'>
  <!-- Generator: Adobe Illustrator 28.6.0, SVG Export Plug-In . SVG Version: 1.2.0 Build 709)  -->
  <g>
    <g id="svg3633">
      <g id="layer1">
        <g id="g20076">
          <path id="path19828" d="M497.1,158.9c-4.4-3.2-11.4-5.3-18.2-5.2-7.4.1-14.4,2.5-19.3,6.4v-46.5h-23v151.6h23v-79.2c0-5.5,4.7-11.5,13.2-11.9,3.8-.1,9.1,1.6,11.8,5.6,2.9,4.2,2.7,9.9,2.7,16v69.6c-.1,0,22.8,0,22.8,0v-70.3c0-20.8-2.6-28.2-13.1-35.9"/>
          <path id="path19830" d="M310.2,210.9c0,14.8-.5,18.9-.6,20.2-.8,8.3-4.3,17-13.9,17s-13.4-9.3-13.8-17.4c-.1,0-.6-5.1-.6-19.9s.5-21,.6-21c0-8.4,4.4-16.7,13.8-16.7s13.8,8.3,13.9,16.6c0,.1.6,6.4.6,21.2ZM332.4,193c-3.2-32.3-21.7-39.3-36.7-39.3-21.4,0-34.4,13.6-36.7,39.3-.3,2.1-.5,5.8-.6,17.9-.1,8.8.5,16.1.6,17.9,1.4,24,15.2,38.7,36.7,38.7s35.3-14.9,36.9-38.7c.1-1.7.5-9.1.5-17.9s-.3-14.8-.6-17.9"/>
          <path id="path19832" d="M548.6,197.3c.1-5.1.1-6.1.3-7.5.6-9.1,4.7-16.6,14-16.6,11-.1,13.6,10.6,14,16.6.3,3.2.4,5.3.4,7.5h-28.7ZM577,227.6s0,1.7-.3,3.8c-.6,5.3-2.7,16.7-13.9,16.7s-13.2-8.7-13.9-17.3c-.1-2.5-.5-5.2-.5-14.5h51.3s0-7.7-.1-12.2c0-1.8-.1-4.8-.5-11.2-.8-9.7-4.4-20.4-10-27.1-6.4-8-15.4-12.2-26.2-12.2-20.8,0-33.7,13.5-36.2,39.3-.3,2.3-.6,5.6-.6,17.9s.5,16.2.6,17.9c1.3,23.6,15.3,38.7,36.2,38.7s34.6-14.7,36.2-39.8h-22.1"/>
          <path id="path19834" d="M185.6,36.2h373.5l142.7,167.1-142.7,164.8H185.6L42.2,202.8,185.6,36.2ZM568.1,17.7H176.6L17.7,202.2l159,183.4h391.4l158.3-182.7L568.1,17.7"/>
          <path id="path19836" d="M190.3,134.2h10.8c11.8,0,18.3,6.2,18.6,17.4,0,.9.1,1.8.1,3.5s0,2.7-.1,3.6c-.6,6.6-3.6,18.2-17.4,18.2h-11.9v-42.7ZM244.7,255.7l-2.3-37.1c-1-16.6-5.3-26.5-14-31.5,6.2-3.8,14.3-13,14.1-32.3,0-29.3-18.3-39.7-39.8-40h-35v150.4h22.6v-68.8h12.7c7.3,0,15.4,6.4,16.7,24.3l2.3,35.2c.3,5.1,1.2,9.3,1.2,9.3h22.7s-1-4.2-1.2-9.5"/>
          <path id="path19838" d="M399.5,226.6c0,1.7-.1,3.1-.3,4.2-.6,8.4-3.5,17.4-13.9,17.4s-13.2-9.7-14-16.9c-.4-4.3-.3-7.7-.4-20.4-.1-14.8.4-18.7.6-21,.8-9.5,4.4-16.7,13.8-16.7,9.7-.1,13.8,8.3,13.9,16.6,0,.1.3,2.1.4,6.5h22.7c0-1.6-.1-2.9-.1-3.5-2.6-31.4-21.8-39.1-36.9-39.1-21.4,0-34.4,13.6-36.7,39.3-.3,2.1-.5,5.8-.6,17.9-.1,8.8.5,16.1.6,17.9,1.4,24,15.2,38.7,36.7,38.7,22.3.1,34.6-13.5,36.9-38.7,0-.9.1-1.6.1-2.2h-22.8"/>
        </g>
      </g>
    </g>
  </g>
</svg>