<?xml version="1.0" encoding="UTF-8"?>
<svg xmlns="http://www.w3.org/2000/svg" version="1.1" xmlns:cc="http://web.resource.org/cc/" xmlns:dc="http://purl.org/dc/elements/1.1/" xmlns:inkscape="http://www.inkscape.org/namespaces/inkscape" xmlns:rdf="http://www.w3.org/1999/02/22-rdf-syntax-ns#" xmlns:sodipodi="http://sodipodi.sourceforge.net/DTD/sodipodi-0.dtd" xmlns:svg="http://www.w3.org/2000/svg" viewBox="0 0 422 272" height='100' width='100'>
  <defs>
    <style>
      .cls-1 {
        fill: #fff;
      }

      .cls-1, .cls-2 {
        fill-rule: evenodd;
      }
    </style>
  </defs>
  <!-- Generator: Adobe Illustrator 28.6.0, SVG Export Plug-In . SVG Version: 1.2.0 Build 709)  -->
  <g>
    <g id="svg2" inkscape:output_extension="org.inkscape.output.svg.inkscape">
      <g id="layer1" inkscape:groupmode="layer" inkscape:label="Layer 1">
        <g id="g13959">
          <g id="g13961">
            <path id="path13963" class="cls-1" d="M222.9,1h0c-42.4,2.7-96.2,12.4-108.4,50.3-1.1,3.6-1.6,7.9-1.6,11.5s.9,11.7,4.5,17.8c.2.2,0,.2-.2.2-6.1-2.7-14.9-5.9-28.2-7.2-18.9-1.8-53.2,1.6-74.8,32.5C5.6,118.6,0,140.3,0,160.5c.2,20.3,3.4,39.2,10.1,57.5,4.1,10.8,7.2,17.6,12.2,22.8,6.1,6.1,13.3,8.6,21.6,11.5l3.6,1.4c27.3,9.9,87.7,19.6,150.3,18.2,54.1-1.1,127.8-10.4,172.6-48.9,36.1-30.9,53-78.7,51.4-145.6-.2-16.2-2.5-29.7-4.3-38.3,0-.2-.9-4.7-2.7-7.7-1.8-3.6-4.9-6.3-8.6-7.9-1.6-.9-5.6-2.5-8.3-3.4-14.9-4.7-39.4-11.3-73-15.8C291.2,0,256.7-1.1,222.9,1"/>
          </g>
          <g id="g13965">
            <path id="path13967" class="cls-2" d="M344.4,137.6c-2-.4-6.1.2-11.3,3.4-9.5,5.9-17.8,21-16.2,28.4.9,4.5,4.5,6.5,9.2,6.3,3.4,0,6.8-1.1,10.8-3.8,2.9-2,7.7-6.5,11.5-14.6,2.7-5.9,6.1-18.5-4.1-19.6M159.6,136.7c-4.3.9-11.3,4.7-17.1,11.5-7,7.9-9.9,16.7-8.6,22.1.9,3.8,5.4,6.3,13.3,3.4,6.3-2.5,11.9-8.6,13.7-10.8,2.9-3.8,5-7.2,7-11.9.9-1.8,1.4-2.9,2-5.2.2-.9,1.1-3.4.7-5.2-.2-3.4-4.1-5.6-11-3.8M410.6,77.4c-.5-16-2.5-29.1-4.1-37.2-.5-1.4-1.1-4.3-2-5.9-.9-1.6-2.5-3.6-5.2-4.7-1.4-.7-5.2-2.2-7.2-2.9-34.7-11.5-96.7-23.7-169-18.9-34.9,2.3-87.7,11.5-98.7,47.1-2,6.1-3.4,19.4,6.1,30.2,4.5,4.5,9.7,7.9,15.1,10.1h.7c6.5-1.6,12.2-2,16.9-2,10.1-.2,16,2.9,16.4,6.3.2,3.4-3.2,6.1-11.3,7-7.7.7-14.6-1.1-18.7-2h-.5c-.7.5-1.4.7-2.3,1.1-12.8,7-21.2,16.4-36.5,38.8-11,16-21.6,29.5-37,39.7-4.7,2.9-13.3,7.7-21.6,8.1-2,.2-5.4,0-7.2-.9-3.2-1.8-2.9-5.2-2-8.6.9-4.7,4.7-13.3,7.4-19.6,5-11.7,8.1-22.3,10.4-33.8,1.1-5.2,1.6-9,1.8-10.1.5-2.2.9-4.9,2-7,1.4-2.7,4.5-4.5,8.1-4.1,5.9.9,10.4,6.8,8.6,15.8-1.6,8.8-6.1,13.3-14.2,30.9-4.5,9.5-5.9,15.1-5.9,16.2s.2.9.5,1.1c.2.4.4.4,1.1.4,4.7.2,13.3-7.7,18-13.5,8.1-9.7,14.9-23,21.2-32,7.7-10.8,12.4-16.2,22.8-23,3.8-2.5,7.9-4.3,11.7-5.6-.2,0-.4-.2-.7-.2-3.2-1.6-6.1-2.9-8.8-4.5-.2,0-.2-.2-.4-.2-.9-.4-1.6-.9-2.3-1.4-1.6-.7-2.9-1.4-4.5-2.3-6.5-2.9-14.6-5.9-27.9-7.2-21.9-2-50,2.5-67.4,27.9-7.9,11.7-12.6,32-12.6,50s2.9,37,9.5,55.2c3.8,10.8,6.5,16.4,10.4,20.3,5.4,5.6,12.4,7.7,21.9,11.3,50.7,18.9,232.4,38.3,309.4-29.3,42.4-37.4,48.9-94.7,48-140.6M299.5,95.4c3.8-.2,6.8,2,7.2,5.6,1.1,6.8-3.8,16.7-11.9,16.4-4.1-.2-7.2-2.9-8.1-6.3-1.4-7,4.7-15.5,12.8-15.8M358.3,170.5c-2.9,4.3-6.3,8.3-13.5,12.8-8.1,5.2-17.6,6.3-21.2,6.3s-9.2-.7-15.1-3.8c-3.2-1.6-5-3.4-7.2-5-3.8-2.7-6.8-2.7-12.2-.7-6.1,2.5-12.9,8.3-23,8.3s-11.9-5-13.5-6.8c-.2-.4-.4-.7-.9-1.1-2.7-2.2-5.4-2.7-11.3-.4-2,.9-4.3,2-6.3,3.2-4.3,2.5-9.2,5.2-16.2,5.2s-11.7-5-13.3-6.8c-.2-.2-.9-.9-.9-1.1-2.7-2.2-5.2-2.7-11.3-.4-1.8.9-3.8,1.8-5.9,2.9-4.5,2.7-9.7,5.6-16.9,5.4-3.6,0-7.9-2-10.4-4.1-2.9-2-5.2-2.5-13.1.4-4.3,1.4-9,3.6-14.9,3.6-8.1.2-16.2-3.2-16.9-14-.9-18.7,15.3-39,33.6-46.4,7.2-2.9,15.8-5.2,23-3.4,2.7.7,4.7,2.3,6.5,3.6,3.2,1.8,5.6.9,9-.4,3.8-1.1,5-1.4,6.3-1.4,2-.2,3.6,0,4.5,1.1,1.1,1.1.5,3.2-.4,4.9-1.1,2.3-3.2,5-6.5,10.4-3.4,5.9-6.8,12.2-9,17.1-7.2,15.1-.9,16.7.7,16.9,7,.2,17.6-6.3,23.4-13.5,2.5-3.4,4.1-5.4,5.6-7.9,2-3.2,4.1-6.7,7-12.2,3.6-7.2,11.9-24.8,18.2-33.6,3.6-4.9,9.9-12.8,16.2-14,2.9-.7,4.5,1.8,4.5,5.4-.2,5-2.9,13.1-7,20.3-7.4,12.9-14.9,22.3-18.9,29.5-2.7,5.2-5.2,10.6-6.5,16.4-.5,1.8-.5,4.1-.2,5.6.5,3.6,3.4,4.7,6.1,4.5,5.2-.7,11.3-4.3,16.9-10.1,2.9-2.7,5.6-6.3,7.7-9.5,8.6-11.9,14.6-22.5,22.1-27.7,6.8-4.5,8.8-1.4,8.8,2.7s-2.5,9.7-4.1,12.4c-4.7,8.3-12.2,19.2-11.7,27.5.2,3.8,3.8,4.9,7,4.9,5.9,0,11.5-3.2,18-10.6,3.8-4.3,7.9-11.5,9.9-14.4,6.1-9.2,9.9-14,15.3-18.3,8.1-6.8,15.8-9.9,26.4-10.1,3.4,0,6.8,1.1,8.3,1.8,2.5,1.1,9,4.5,10.6,12.8,2.5,13.5-3.6,25.2-7.4,31.3"/>
          </g>
        </g>
      </g>
    </g>
  </g>
</svg>