<?xml version="1.0" encoding="UTF-8"?>
<svg xmlns="http://www.w3.org/2000/svg" version="1.1" viewBox="0 0 1564 561" height='100' width='100'>
  <defs>
    <style>
      .cls-1, .cls-2 {
        fill: #fff;
      }

      .cls-2, .cls-3 {
        fill-rule: evenodd;
      }
    </style>
  </defs>
  <!-- Generator: Adobe Illustrator 28.6.0, SVG Export Plug-In . SVG Version: 1.2.0 Build 709)  -->
  <g>
    <g id="Layer_1">
      <g id="_x23_0058a3ff">
        <path id="Layer" class="cls-3" d="M124.8,9.6c36.5-11.7,76.7-11.2,113,1.2,37.7,12.9,70.8,38.8,92.3,72.3,20.4,31.2,30.4,69,28.5,106.3-1.5,31.4-11.3,62.5-28.5,88.8-20.5,31.9-51.5,57-87,70.4-34.7,13.2-73.6,15.2-109.5,5.7-37.9-9.8-72.2-32.7-96.2-63.8C14.9,261.9,1.9,226,0,189.5v-17.4c1.9-37.4,15.5-74.1,39-103.3,22-27.6,52.1-48.6,85.8-59.2ZM110.7,71.2c0,15.6,0,31.2,0,46.7,27.2,0,54.4,0,81.6,0-26.4,36.4-52.9,72.8-79.3,109.2-4.7,6.6-9.6,13.5-11,21.6-1.9,9.1.4,19.2,7.1,25.9,7,7.1,17.3,9.4,27,9.5,40.4,0,80.8,0,121.3,0,0-15.6,0-31.2,0-46.7-30.5,0-61,0-91.5,0,25.8-35.9,51.8-71.8,77.6-107.7,4.8-7.1,9.7-14.6,10.3-23.3.8-8.9-.8-18.5-6.7-25.4-5.6-6.7-14.6-9.7-23.1-9.8-37.7,0-75.5,0-113.2,0Z"/>
      </g>
      <path id="Layer-2" data-name="Layer" class="cls-3" d="M441.5,5.5c39.5-8.8,81.9-4.1,118.2,13.8,29.3,14.2,54.6,36.6,72.2,64.1,29.4,44.8,36.6,103,19.7,153.7-4.7,14.5-11.4,28.3-19.6,41.1-21.7,33.8-55.1,59.9-93.2,72.7-38.2,13-80.9,12.7-118.8-1.1-36.7-13.1-68.7-38.7-89.9-71.4,17.2-26.4,27.1-57.4,28.5-88.8,1.9-37.3-8.1-75.1-28.5-106.3,25.2-39.1,66-67.7,111.4-77.7ZM422.7,79.9c-5.6,6.7-6.5,15.7-6.6,24.1,0,46.6,0,93.3,0,139.9-.1,12.1-.5,27.1,10.5,34.9,5.8,4.1,13.2,5.2,20.1,5.3,33.8,0,67.6,0,101.4,0,0-15.6,0-31.1,0-46.7-27.1,0-54.2,0-81.3,0,0-12.1,0-24.1,0-36.2,25.6,0,51.1,0,76.7,0,0-15.7,0-31.3,0-47-25.6,0-51.1,0-76.7,0,0-12.1,0-24.1,0-36.2,26.2,0,52.4,0,78.6,0,0-15.5,0-31.1,0-46.6-32.9-.3-65.8,0-98.7-.1-8.6,0-18.1,1.9-24,8.8Z"/>
      <path id="Layer-3" data-name="Layer" class="cls-3" d="M315.6,470.7c2-5.4,6.8-9.5,12.5-10.5,7.8-1.7,16.4,3.2,18.9,10.8,10.5,29.3,21,58.6,31.5,87.9-8.1,0-16.1,0-24.1,0-2.5-7.1-5-14.2-7.6-21.3h-32.5c-2.5,7.1-5.1,14.2-7.6,21.3-8.1,0-16.2,0-24.3,0,11.1-29.4,22.2-58.8,33.3-88.2ZM319.6,520.5c7.2,0,14.5,0,21.7,0-3.5-11.1-7.1-22.1-10.6-33.1-3.7,11-7.5,22-11.1,33.1Z"/>
      <path id="Layer-4" data-name="Layer" d="M392,470.4c-.2-7,7.3-11.8,13.8-10.4,5.8.6,9.9,6.1,9.6,11.7.1,22.4,0,44.7,0,67.1,14.5,0,29.1,0,43.6,0v20.1c-18.9,0-37.9.1-56.8,0-6-.2-10.6-5.7-10.3-11.5,0-25.6,0-51.2,0-76.9Z"/>
      <path id="Layer-5" data-name="Layer" class="cls-3" d="M514.3,461.4c8.4-4.2,19.5.3,22.6,9.2,10.6,29.4,21.1,58.9,31.7,88.3h-24.1c-2.5-7.1-5-14.3-7.6-21.4-10.8,0-21.7,0-32.5,0-2.5,7.1-5,14.2-7.6,21.3-8.1,0-16.1,0-24.2,0,10.6-28,21.2-56.1,31.7-84.1,1.6-5.5,4.6-11,10.1-13.4ZM509.8,520.5c7.3,0,14.5,0,21.7,0-3.5-11-7-22-10.6-33-3.9,10.9-7.5,22-11.1,33Z"/>
      <path id="Layer-6" data-name="Layer" d="M582.2,471.6c0-4.4,2.4-9.2,6.8-10.6,6.3-2.2,14.9-1.9,18.7,4.4,12.4,19.8,24.6,39.6,36.9,59.4,0-21,0-42.1,0-63.1h22.6c0,28.5,0,57,0,85.4,0,4.5-1.5,9.6-5.8,11.8-4.3,2-9.2,2.2-13.8,1.1-3.3-.7-5.4-3.6-7.1-6.2-11.9-18.8-23.8-37.7-35.8-56.5,0,20.5,0,41,0,61.6-7.5,0-15,0-22.6,0,0-29.1,0-58.2,0-87.3Z"/>
      <path id="Layer-7" data-name="Layer" d="M955,470.2c0-6.9,7.2-11.4,13.6-10.2,5.2.6,9.5,5,9.7,10.3.3,8.9,0,17.8,0,26.8h36.5c0-9.2-.1-18.3,0-27.5.4-6.4,7-10.5,13-9.6,5.9.2,10.6,5.7,10.3,11.6.1,29.1,0,58.3,0,87.4-7.8,0-15.7,0-23.5,0,0-13.9,0-27.9,0-41.8-12.2,0-24.3,0-36.5,0,0,13.9,0,27.8,0,41.8-7.8,0-15.7,0-23.5,0,0-29.6,0-59.2,0-88.7Z"/>
      <path id="Layer-8" data-name="Layer" class="cls-3" d="M1085.2,470.4c3.1-8.8,14.3-13.1,22.6-8.9,4.8,2.1,7.9,6.7,9.3,11.6,10.2,28.6,20.4,57.2,30.8,85.8-8.1,0-16.1,0-24.1,0-2.6-7.1-5.1-14.2-7.6-21.4h-32.5c-2.6,7.1-5.1,14.2-7.7,21.4-8.1,0-16.1,0-24.2,0,11.1-29.5,22.3-59,33.4-88.5ZM1089.1,520.6c7.2,0,14.5,0,21.7,0-3.6-11.1-7.1-22.2-10.7-33.2-3.6,11.1-7.4,22.1-11,33.2Z"/>
      <path id="Layer-9" data-name="Layer" d="M1265.8,476.6c-.4-7.5,5.2-14.7,12.5-16.2,8.2-2.2,17.4,3,19.7,11.2,6.2,18.9,11.4,38.1,16.9,57.2,5.2-17.7,10.1-35.5,15.7-53.1,1.6-6.5,5.2-13.2,12.2-15,9.7-3.5,21.4,4.3,21.3,14.7,0,27.9,0,55.7,0,83.5h-21c0-21,0-42,0-62.9-6.1,19.4-12,38.9-18.2,58.3-2.6,8.9-17.7,8.7-20-.3-5.9-19.4-12.3-38.6-17.8-58.1-.6,21-.1,42-.3,63h-21c0-27.4,0-54.9,0-82.3Z"/>
      <path id="Layer-10" data-name="Layer" class="cls-3" d="M1416.7,462.8c8.3-6.1,21.6-2.1,24.9,7.8,10.6,29.4,21.2,58.9,31.7,88.4-8.1,0-16.1,0-24.1,0-2.8-7-4.5-14.7-7.9-21.2-10.7-.3-21.5,0-32.2-.1-2.5,7.1-5.1,14.2-7.6,21.3-8.1,0-16.2,0-24.2,0,10.2-27.1,20.4-54.1,30.6-81.2,2.1-5.4,3.5-11.7,8.8-15ZM1414.5,520.6c7.2,0,14.5,0,21.7,0-3.4-11.1-7.1-22-10.6-33.1-3.7,11-7.4,22-11.2,33.1Z"/>
      <path id="Layer-11" data-name="Layer" d="M98.7,461.7c24.1,0,48.1-.1,72.2,0,8.6.5,10.6,12.4,5.8,18.2-16.3,19.7-33,39.2-49.4,58.8,17.5,0,34.9,0,52.4,0v20.1c-24,0-48.1,0-72.1,0-3.2,0-6.7-.4-9.2-2.6-3-2.5-3.7-6.8-3.3-10.4.4-4.1,3.4-7.2,6-10.2,15.2-17.9,30.4-35.9,45.6-53.8h-48v-20.1Z"/>
      <path id="Layer-12" data-name="Layer" d="M200.5,473.9c-.3-6.1,4.4-12.1,10.8-12.1,19-.2,37.9,0,56.9,0,0,6.4,0,12.8,0,19.2-14.7,0-29.5,0-44.2,0,0,6.3,0,12.6,0,18.9h38.4c0,6.2,0,12.4,0,18.6-12.8,0-25.6,0-38.3,0v21.4h45.2v19.2c-18.8,0-37.6,0-56.3,0-3.7,0-7.6-1.2-9.8-4.2-2.4-3.2-2.5-7.4-2.5-11.2.1-23.2,0-46.4,0-69.6Z"/>
      <path id="Layer-13" data-name="Layer" class="cls-3" d="M689.2,474c-.3-5.8,3.8-11.7,9.8-12.1,9.9-.4,19.8,0,29.7-.2,11.4-.3,23.4,2.4,32.1,10.1,8.2,7.4,11.9,18.5,13,29.3,1.2,13.7,0,28.5-7.6,40.3-7.5,11.6-21.7,17.2-35.1,17.5h-42.1c0-28.3,0-56.6,0-84.9ZM712.7,480.9v58.8c8.7-.6,18.1,1.6,26.3-2.2,9.3-5,11.8-16.6,11.8-26.3.2-9.6-1.1-21.1-9.7-27.1-8.5-5.3-19-2.5-28.4-3.2Z"/>
      <path id="Layer-14" data-name="Layer" class="cls-3" d="M857.2,473.9c-.2-5.8,3.9-11.7,10-12,12.4-.4,24.8,0,37.2-.2,9.1-.1,18.8,2.7,25.1,9.5,7.8,8.5,8.8,21.6,5.5,32.2-3.7,11.5-15.4,18.6-27,19.4-9.1.4-18.3,0-27.4.2,0,12,0,23.9,0,35.9h-23.5c0-28.3,0-56.7,0-85ZM880.7,480.3c0,8.1,0,16.1,0,24.1,6.3,0,12.6,0,19,0,4.3,0,9-1.6,11.5-5.2,4.2-5.8,2.1-15.7-5.2-17.7-8.2-2.4-16.8-.7-25.2-1.2Z"/>
      <path id="Layer-15" data-name="Layer" class="cls-3" d="M1164.3,465.3c2.4-2.8,6.4-3.7,10-3.6,13.2,0,26.4,0,39.6,0,8.1.3,16.7,2.5,22.5,8.4,11.4,11.3,9,33.9-6,41,2.5,1.3,5.4,2.7,6.8,5.3,4.5,7,2.1,15.8,3.8,23.5.4,5.1,3.7,10.5,1,15.5-4.7,7.6-17.9,6.9-21.7-1.3-3.8-7.8-.9-16.9-3.7-25-1-4.2-4.6-7.7-9-8-7.6-.7-15.3-.2-22.9-.3,0,12.7,0,25.4,0,38.1h-23.5v-83.6c.1-3.5.5-7.4,3-10ZM1184.8,480.3c0,7.6,0,15.3,0,22.9,7.3,0,14.5,0,21.8,0,3.7-.3,7.8-.8,10.5-3.6,3.5-3.4,3.5-9,2-13.4-1.8-4.4-7-5.8-11.3-5.8-7.7,0-15.3,0-23,0Z"/>
      <g id="_x23_ffb500ff">
        <path id="Layer-16" data-name="Layer" class="cls-3" d="M702,20.3c42.5-21.7,93.7-25.1,138.8-9.6,37.9,12.7,71.1,38.8,92.8,72.3,25.1,38.3,34.3,86.5,25.7,131.5-4.3,22.7-13.1,44.6-25.7,64-17.8,27.4-43.2,49.9-72.7,64.1-43.5,21.1-95.6,23.5-140.8,6.4-36-13.3-67.2-38.7-88-70.9,8.2-12.8,14.9-26.6,19.6-41.1,16.9-50.7,9.7-108.9-19.7-153.7,17.4-26.6,41.6-48.7,70.1-63ZM759.5,74.1c-13.6,10.3-18.8,27.4-23.6,43.1-18,55.7-36.1,111.3-54,166.9,17.2,0,34.4,0,51.6,0,3.5-13.1,7-26.2,10.5-39.3,25.8,0,51.6,0,77.4,0,3.4,13.1,7,26.2,10.5,39.3,17.3,0,34.7,0,52,0-17.6-54.9-35.3-109.7-53-164.5-3.2-9.8-5.8-19.9-11-28.9-5.9-10.8-15.6-20.4-28.1-22.7-11-1.4-23.2-1.2-32.3,6.1Z"/>
        <path id="Layer-17" data-name="Layer" d="M755.6,200.5c9.2-28.5,18.3-57,27.5-85.5,8.9,28.5,17.8,57,26.6,85.5-18,0-36.1,0-54.1,0Z"/>
      </g>
      <g id="_x23_23aeb7ff">
        <path id="Layer-18" data-name="Layer" class="cls-3" d="M998.3,23c42.1-23.3,93.7-28.1,139.5-13.8,39.1,12.1,73.7,38.2,96.2,72.3-24.3,36.6-34.1,82.3-27.4,125.7,3.8,25.6,13.4,50.4,27.7,72-17.6,26.7-42.3,48.6-70.9,62.6-44.1,21.9-97.4,24.2-143.3,6.5-35.3-13.4-66-38.4-86.5-70.1,12.6-19.4,21.4-41.3,25.7-64,8.6-45-.5-93.1-25.7-131.5,16.2-24.9,38.6-45.8,64.7-60ZM1041.1,72.4c-7,5.3-9.5,14.5-9.5,22.9,0,52.8,0,105.6,0,158.5,0,8.2,1.9,17.3,8.1,23.1,6.1,5.8,15,7,23.1,7.2,32.4,0,64.8,0,97.1,0,0-15.6,0-31.1,0-46.7-25.9,0-51.8,0-77.6,0,0-47.3,0-94.7,0-142.1,0-4.6-.8-9.2-2.5-13.5-2.8-7.1-9.4-12.5-16.9-13.7-7.4-1.1-15.7-.5-21.8,4.2Z"/>
      </g>
      <g id="_x23_ee462bff">
        <path id="Layer-19" data-name="Layer" class="cls-3" d="M1330.2,8.8c40.3-12.7,85.1-10.6,123.9,6,37.5,15.8,69.2,44.9,88.3,80.8,23.4,43.4,27.5,96.6,11.3,143.2-12.9,38-39.2,71.2-73,92.8-46.2,30-106.4,36.5-158.1,17.5-35.9-13-67.4-37.8-88.4-69.7-14.3-21.6-23.9-46.4-27.7-72-6.7-43.4,3.1-89.1,27.4-125.7,22.5-34.4,57-60.6,96.2-72.8ZM1366,67.2c-14.6,2.8-29.1,9.8-38.4,21.8-9.2,11.8-11.7,28-7.8,42.3,2.8,10.5,9.6,19.4,17.1,27.1-14.9,8.6-28.6,20.1-36.8,35.5-10.1,18.8-9.9,42.7,0,61.5,8.2,15.4,23.6,25.8,40.1,30.5,19.6,5.6,41.4,5.3,60.3-2.8,12.1-5,22.7-12.9,32.7-21.3,8.6,9.3,17.2,18.6,25.9,27.9,11-10.4,21.9-20.8,32.9-31.3-8.8-9.4-17.5-18.7-26.4-28,7.9-9,17.3-17.5,21.1-29.2,3.4-10.2-3.3-21.5-12.9-25.1-6.7-2.2-14.6-.3-19.6,4.7-6.2,6-11.5,13-17.3,19.4-9.8-10.8-19.5-21.6-29.3-32.3,10.2-5.9,19.7-13.4,26.5-23.2,7.6-10.5,11.2-24.1,9.1-37-1.7-11.7-9.1-21.9-18.6-28.6-16.7-11.9-38.4-15.9-58.4-11.8Z"/>
        <path id="Layer-20" data-name="Layer" d="M1363.6,119c-1.1-8.7,7.2-15.2,14.9-16.8,7.3-1.2,15.7,1.3,20.3,7.4,3.4,4.8,4,11.8.7,16.8-4.6,7.3-12.2,11.8-19.6,15.7-6.4-6.8-15.2-13-16.2-23Z"/>
        <path id="Layer-21" data-name="Layer" d="M1339.8,209.3c3.8-10.9,13.3-18.3,22.6-24.4,14,15.5,27.9,31,41.9,46.5-7.7,7.2-16.8,13.6-27.4,15.4-10.2,1.7-21.9.9-30-6.2-8.8-7.5-10.7-20.7-7.1-31.3Z"/>
      </g>
      <g id="_x23_ffffffff">
        <path id="Layer-22" data-name="Layer" class="cls-2" d="M1366,67.2c20-4.1,41.7-.1,58.4,11.8,9.5,6.7,16.8,17,18.6,28.6,2.1,12.9-1.5,26.5-9.1,37-6.8,9.7-16.3,17.3-26.5,23.2,9.8,10.7,19.6,21.5,29.3,32.3,5.8-6.4,11.1-13.3,17.3-19.4,5-5,12.9-6.9,19.6-4.7,9.7,3.6,16.3,14.9,12.9,25.1-3.8,11.7-13.2,20.2-21.1,29.2,8.9,9.3,17.6,18.7,26.4,28-10.9,10.4-21.9,20.9-32.9,31.3-8.7-9.2-17.3-18.5-25.9-27.9-10,8.4-20.6,16.3-32.7,21.3-18.9,8.1-40.7,8.4-60.3,2.8-16.5-4.8-31.9-15.1-40.1-30.5-9.9-18.8-10.2-42.7,0-61.5,8.2-15.3,22-26.9,36.8-35.5-7.4-7.7-14.2-16.5-17.1-27.1-3.9-14.3-1.4-30.5,7.8-42.3,9.3-12,23.8-18.9,38.4-21.8ZM1363.6,119c1,10,9.8,16.3,16.2,23,7.4-3.9,15-8.5,19.6-15.7,3.3-5,2.7-11.9-.7-16.8-4.6-6.1-13-8.6-20.3-7.4-7.7,1.7-16,8.1-14.9,16.8ZM1339.8,209.3c-3.6,10.6-1.7,23.8,7.1,31.3,8.1,7.1,19.8,7.9,30,6.2,10.6-1.8,19.7-8.2,27.4-15.4-14-15.5-27.9-31-41.9-46.5-9.3,6.1-18.8,13.5-22.6,24.4Z"/>
        <path id="Layer-23" data-name="Layer" class="cls-2" d="M759.5,74.1c9.1-7.3,21.3-7.5,32.3-6.1,12.5,2.3,22.2,12,28.1,22.7,5.2,9,7.8,19.1,11,28.9,17.6,54.8,35.3,109.7,53,164.5-17.3,0-34.7,0-52,0-3.4-13.1-7-26.2-10.5-39.3-25.8,0-51.6,0-77.4,0-3.5,13.1-7,26.2-10.5,39.3-17.2,0-34.4,0-51.6,0,17.9-55.7,36-111.3,54-166.9,4.8-15.6,10-32.7,23.6-43.1ZM755.6,200.5c18.1,0,36.1,0,54.1,0-8.9-28.5-17.8-57-26.6-85.5-9.2,28.5-18.3,57-27.5,85.5Z"/>
        <path id="Layer-24" data-name="Layer" class="cls-1" d="M1041.1,72.4c6.1-4.8,14.4-5.3,21.8-4.2,7.5,1.2,14.2,6.6,16.9,13.7,1.7,4.3,2.4,8.9,2.5,13.5,0,47.3,0,94.7,0,142.1,25.9,0,51.7,0,77.6,0,0,15.6,0,31.2,0,46.7-32.4,0-64.8,0-97.1,0-8.1-.2-17-1.4-23.1-7.2-6.3-5.9-8.1-14.9-8.1-23.1,0-52.8,0-105.6,0-158.5,0-8.4,2.5-17.7,9.5-22.9Z"/>
        <path id="Layer-25" data-name="Layer" class="cls-1" d="M110.7,71.2c37.7,0,75.5,0,113.2,0,8.6,0,17.5,3.1,23.1,9.8,5.9,7,7.5,16.6,6.7,25.4-.7,8.7-5.6,16.3-10.3,23.3-25.9,35.9-51.8,71.8-77.6,107.7,30.5,0,61,0,91.5,0,0,15.6,0,31.2,0,46.7-40.4,0-80.8,0-121.3,0-9.7,0-20-2.4-27-9.5-6.7-6.7-8.9-16.8-7.1-25.9,1.4-8.1,6.3-15,11-21.6,26.4-36.4,52.9-72.8,79.3-109.2-27.2,0-54.4,0-81.6,0,0-15.6,0-31.2,0-46.7Z"/>
        <path id="Layer-26" data-name="Layer" class="cls-1" d="M422.7,79.9c5.9-6.8,15.4-8.8,24-8.8,32.9.1,65.8-.2,98.7.1-.1,15.5,0,31.1,0,46.6-26.2,0-52.4,0-78.6,0,0,12.1,0,24.1,0,36.2,25.6,0,51.1,0,76.7,0,0,15.7,0,31.3,0,47-25.6,0-51.1,0-76.7,0,0,12.1,0,24.1,0,36.2,27.1,0,54.2,0,81.3,0,0,15.6,0,31.2,0,46.7-33.8,0-67.6,0-101.4,0-7-.1-14.3-1.2-20.1-5.3-11-7.8-10.7-22.8-10.5-34.9,0-46.6,0-93.3,0-139.9.1-8.4,1-17.4,6.6-24.1Z"/>
      </g>
    </g>
  </g>
</svg>