<?xml version="1.0" encoding="UTF-8"?>
<svg xmlns="http://www.w3.org/2000/svg" version="1.1" viewBox="0 0 1080 264.2">
  <defs>
    <style>
      .cls-1 {
        fill: #2ac4f7;
      }

      .cls-2 {
        fill: #06185e;
      }

      .cls-3 {
        fill: #04165d;
      }

      .cls-4 {
        fill: #95d524;
      }
    </style>
  </defs>
  <!-- Generator: Adobe Illustrator 28.6.0, SVG Export Plug-In . SVG Version: 1.2.0 Build 709)  -->
  <g>
    <g id="Layer_1">
      <g>
        <path class="cls-4" d="M600.5,192.6c-6.2,0-10.5-2.6-13.6-8-14.2-25-28.7-49.8-42.8-74.8-5.5-9.8-21.3-10.9-27.1-.4-12,21.8-24.7,43.2-37.1,64.8-2.2,3.9-4.4,7.8-6.8,11.6-3.5,5.5-10,8.2-16.6,6.5-5.9-1.5-9.4-5.6-11.2-11.5-1.5-5,.3-9.1,2.5-13,10-17.9,20.3-35.7,30.5-53.5,9.9-17.3,20-34.5,29.8-51.9,3.2-5.6,6.3-11.4,9.8-16.8,5.8-8.8,20-9.1,26,1,11.1,18.8,21.8,37.8,32.7,56.7,12.4,21.6,24.8,43.2,37.2,64.8,3.1,5.4,3.8,10.8.6,16.3-3,5.1-7.4,8-13.5,8h0Z"/>
        <path class="cls-1" d="M589.8,109.3c-2.1-3.6-4-7-6-10.5-3.5-6-6.9-12.1-10.4-18.1-1-1.6-1.2-3-.2-4.7,5.9-10.1,11.4-20.3,17.5-30.3,5.2-8.5,19.9-9.4,26,1.1,12.1,20.7,23.9,41.6,35.9,62.5,11.3,19.7,22.6,39.5,34,59.1,3.7,6.5,3.2,13.7-1.5,19.2-4.2,4.9-11.8,6.4-18.4,3.5-3.3-1.4-5.3-4-7-7-14.1-24.7-28.1-49.4-42.2-74.1-5.9-10.2-20.2-11.5-27.5-.8h0Z"/>
      </g>
      <g>
        <path class="cls-2" d="M179.3,94.8c5.6-7.1,12.4-11,20.5-12.6,9.9-2,19.6-1.8,28.7,3.4,7.7,4.4,11.3,11.5,13.3,19.7,1.3,5.4,1.9,10.9,1.9,16.4,0,21.7,0,43.4,0,65.1,0,2.4-.6,3-2.9,3-7.6-.2-15.1-.2-22.6,0-2.6,0-3.1-.9-3.1-3.2,0-20.9,0-41.7,0-62.6,0-3.1-.2-6.2-.9-9.2-1.5-6.4-6.1-9-12.1-10.1-7.4-1.3-16.4.8-20.9,7.8-1,1.5-1.2,3-1.2,4.7,0,23.1,0,46.1,0,69.2,0,2.8-.6,3.5-3.4,3.5-7.5-.2-15.1-.1-22.6,0-2.1,0-2.6-.6-2.6-2.7,0-33.9,0-67.7,0-101.6,0-1.8.3-2.6,2.4-2.6,7.4.1,14.9.1,22.3,0,1.8,0,2.2.6,2.2,2.3,0,3.1.5,6.1.9,9.6h0Z"/>
        <path class="cls-2" d="M346.3,115.5c-3.9,0-7.8,0-11.6,0-1.7,0-2.5-.3-2.8-2.3-1-5.6-4.3-9.7-10-10.9-4.2-.9-8.5-1.5-12.7-.2-4,1.2-8.2,5.4-8.3,9.8,0,4.7,2.1,7.9,7.3,10.1,7,3,14.5,3.7,21.8,5.7,8.2,2.2,16.3,4.9,22.6,10.9,13,12.3,10.6,34.2-4.7,44.3-8,5.3-16.9,8-26.5,8.4-2.7,0-5.4.2-8,.4-5.4.4-10.5-1.1-15.5-2.5-5-1.4-9.8-3.6-13.9-6.9-7.8-6.2-13.2-13.9-13.8-24.2,0-1.7,0-2.5,2.1-2.4,7.5.1,15.1,0,22.6,0,1.2,0,2.2,0,2.4,1.7.8,8.2,6.7,12.5,13.9,13.6,5.3.8,10.8,1,15.8-1.7,3.8-2,6.1-5.2,6-9.4-.1-4.6-3.5-7.1-7.4-8.9-6-2.7-12.5-3.5-18.8-5.2-9.6-2.6-19.2-5.7-26.4-13.2-5.4-5.6-7.3-12.3-7.2-20.1.1-14.3,13.6-26.5,26.5-29.4,13.1-3,26.1-2.9,38.6,2,10.8,4.2,18.7,11.5,21.4,23.3.4,1.8.5,3.7.8,5.5.2,1.7-1,1.5-2,1.5-4.1,0-8.2,0-12.3,0h0Z"/>
        <path class="cls-2" d="M87,117.8c0-22.8,0-45.7,0-68.5,0-2.6.5-3.4,3.2-3.3,7.8.2,15.7.2,23.6,0,2.4,0,2.9.7,2.9,3,0,46,0,92,0,138,0,2.2-.6,2.8-2.8,2.8-8.1-.1-16.1-.1-24.2,0-2.3,0-2.7-.7-2.7-2.8,0-23,0-46.1,0-69.1h0Z"/>
        <path class="cls-3" d="M390.9,136.2c0-16.7,0-33.3,0-50,0-2.5.4-3.4,3.2-3.3,7.6.2,15.3.1,23,0,1.8,0,2.5.3,2.5,2.4,0,34,0,67.9,0,101.9,0,2.2-.7,2.6-2.7,2.5-7.5,0-15.1-.2-22.6,0-2.5,0-3.3-.5-3.3-3.2.1-16.8,0-33.5,0-50.3h0Z"/>
        <path class="cls-2" d="M404.9,69.9c-8.6,0-13.2-3-15.2-9.9-2-7,.8-14.2,6.9-17.7,9.8-5.6,23.2.9,24.5,12,.9,8-6.1,16-13.7,15.6-.8,0-1.7,0-2.5,0h0Z"/>
      </g>
      <g>
        <path class="cls-2" d="M976.8,156.4c4.3,4.7,8.4,9.3,12.5,13.9,1.1,1.2,1.1,2.1,0,3.6-4.6,5.9-10.6,9.6-17.2,12.8-10.4,5-21.6,5.1-32.5,4.1-9.2-.9-17.8-4.6-25.3-10.9-7.7-6.5-13-14.3-15.6-23.9-1.5-5.3-2.4-10.8-2.4-16.5,0-6.3-.1-12.7,1.3-18.7,1.9-7.8,4.7-15.5,10-21.9,4.4-5.3,9.2-10,15.4-13.1,4.9-2.4,10-3.8,15.3-4.5,10-1.3,20-.6,29.3,3.8,13,6.2,20.2,17,23.6,30.7,2.2,9.2,1.8,18.4,2,27.7,0,2.4-1.5,1.8-2.7,1.8-20.5,0-41.1,0-61.6,0s-3.4,1.2-2.8,3.6c2.9,12.2,13.2,19.8,26.2,19.4,9.9-.3,18.3-4,24.6-11.9h0ZM945.5,125.8h17.6c1,0,2.2.2,2.1-1.5-.3-6-1.3-11.7-6-16-10-9.1-26.7-4.4-31.5,8.9-.7,1.9-.9,3.9-1.6,5.7-1,2.7.2,2.9,2.4,2.8,5.7-.1,11.3,0,17,0h0Z"/>
        <path class="cls-3" d="M804.5,94.4c2.4-2.9,4.9-5.3,7.8-7.3,9.2-6.1,19.3-7.4,30-5.8,14.9,2.2,22.2,12,24.9,26.5.9,5,1.3,9.9,1.3,14.9,0,21.2,0,42.3,0,63.5,0,2.5-.7,3.1-3.1,3-7.4-.2-14.9-.2-22.3,0-2.4,0-3.1-.5-3.1-3,.1-21.4,0-42.8,0-64.2s-.5-9.8-4-13.4c-4.9-5.1-11.3-5.1-17.8-4.3-2.6.4-5.2,1.2-7.3,3-3.8,3-6.2,6.3-6.2,11.8.3,22.2,0,44.4.2,66.7,0,2.6-.4,3.6-3.3,3.5-7.5-.3-15.1-.2-22.6,0-2.1,0-2.6-.6-2.6-2.6,0-33.8,0-67.5,0-101.3,0-2.2.5-2.8,2.7-2.8,7.1.1,14.3.2,21.4,0,2.5,0,3,.9,3,3.1,0,2.8-.2,5.6.9,8.6h0Z"/>
        <path class="cls-2" d="M715,135.9c0-16.7,0-33.3,0-50,0-2.7.8-3.3,3.3-3.2,7.6.2,15.3.1,22.9,0,1.9,0,2.5.4,2.5,2.4,0,33.9,0,67.9,0,101.8,0,2-.7,2.4-2.5,2.4-7.8,0-15.5-.1-23.2,0-2.3,0-3-.5-3-2.9.1-16.9,0-33.7,0-50.6h0Z"/>
        <path class="cls-2" d="M728.5,69.6c-5.6,1.1-10.3-1.8-13.1-6.3-5.5-8.9-1.6-21.2,10.3-22.5,4.6-.5,9.3-.4,13.5,2.5,8.7,6,7.8,19.8-1.6,24.7-2.8,1.5-5.7,1.9-9,1.6h0Z"/>
      </g>
    </g>
  </g>
</svg>