<?xml version="1.0" encoding="UTF-8"?>
<svg id="Layer_1" xmlns="http://www.w3.org/2000/svg" viewBox="0 0 1080 1080">
  <defs>
    <style>
      .cls-1 {
        fill: #2ac4f7;
      }

      .cls-2 {
        fill: #95d524;
      }
    </style>
  </defs>
  <path class="cls-2" d="M663.05,819.59c-22.46.26-38.47-9.42-49.68-29.07-51.95-91.05-104.83-181.57-156.3-272.88-20.23-35.89-77.75-39.78-98.97-1.39-43.94,79.52-90.08,157.82-135.37,236.59-8.15,14.18-16.11,28.5-24.95,42.24-12.83,19.93-36.63,29.8-60.75,23.71-21.45-5.42-34.23-20.29-40.96-41.82-5.67-18.14,1-33.19,8.99-47.47,36.57-65.34,74.09-130.15,111.15-195.22,36.01-63.24,72.83-126.03,108.55-189.47,11.6-20.6,22.88-41.54,35.95-61.25,21.36-32.2,73.03-33.19,94.8,3.65,40.48,68.5,79.56,137.83,119.17,206.85,45.23,78.83,90.38,157.71,135.6,236.55,11.21,19.55,14.02,39.51,2.06,59.63-11.02,18.53-27.08,29.27-49.27,29.35Z"/>
  <path class="cls-1" d="M623.87,515.65c-7.52-13.2-14.63-25.73-21.8-38.24-12.64-22.07-25.18-44.2-38.07-66.12-3.49-5.94-4.25-10.89-.55-17.24,21.38-36.77,41.63-74.22,63.73-110.55,18.97-31.17,72.52-34.3,94.81,3.9,44.16,75.67,87.31,151.94,130.93,227.93,41.32,71.97,82.62,143.96,124.13,215.82,13.61,23.56,11.83,49.85-5.56,70.23-15.17,17.78-43.14,23.24-67.29,12.96-11.94-5.08-19.49-14.71-25.72-25.63-51.36-90.13-102.52-180.36-154.2-270.3-21.41-37.25-73.74-41.95-100.42-2.76Z"/>
</svg>