<?xml version="1.0" encoding="UTF-8"?>
<svg id="Layer_1" xmlns="http://www.w3.org/2000/svg" xmlns:xlink="http://www.w3.org/1999/xlink" viewBox="0 0 1080 1080">
  <defs>
    <style>
      .cls-1 {
        fill: url(#linear-gradient-5);
      }

      .cls-1, .cls-2, .cls-3, .cls-4, .cls-5, .cls-6, .cls-7, .cls-8, .cls-9, .cls-10, .cls-11, .cls-12, .cls-13, .cls-14, .cls-15 {
        stroke: #fff;
        stroke-miterlimit: 10;
      }

      .cls-2 {
        fill: url(#linear-gradient-9);
      }

      .cls-3 {
        fill: url(#linear-gradient-3);
      }

      .cls-4 {
        fill: url(#linear-gradient-7);
      }

      .cls-5 {
        fill: url(#linear-gradient-10);
      }

      .cls-6 {
        fill: url(#linear-gradient-12);
      }

      .cls-7 {
        fill: url(#linear-gradient-15);
      }

      .cls-8 {
        fill: url(#linear-gradient-4);
      }

      .cls-9 {
        fill: url(#linear-gradient-6);
      }

      .cls-10 {
        fill: url(#linear-gradient-14);
      }

      .cls-11 {
        fill: url(#linear-gradient-13);
      }

      .cls-12 {
        fill: url(#linear-gradient);
      }

      .cls-13 {
        fill: url(#linear-gradient-11);
      }

      .cls-14 {
        fill: url(#linear-gradient-8);
      }

      .cls-15 {
        fill: url(#linear-gradient-2);
      }
    </style>
    <linearGradient id="linear-gradient" x1="159.92" y1="534.52" x2="892.64" y2="534.52" gradientUnits="userSpaceOnUse">
      <stop offset="0" stop-color="#2ac4f7"/>
      <stop offset="1" stop-color="#97d628"/>
    </linearGradient>
    <linearGradient id="linear-gradient-2" x1="696.33" y1="774.96" x2="826.92" y2="774.96" xlink:href="#linear-gradient"/>
    <linearGradient id="linear-gradient-3" x1="231.32" y1="310.45" x2="372.97" y2="310.45" xlink:href="#linear-gradient"/>
    <linearGradient id="linear-gradient-4" x1="561.69" y1="310.16" x2="585.32" y2="310.16" xlink:href="#linear-gradient"/>
    <linearGradient id="linear-gradient-5" x1="608.94" y1="310.16" x2="632.57" y2="310.16" xlink:href="#linear-gradient"/>
    <linearGradient id="linear-gradient-6" x1="656.18" y1="310.16" x2="679.81" y2="310.16" xlink:href="#linear-gradient"/>
    <linearGradient id="linear-gradient-7" x1="703.43" y1="310.16" x2="727.06" y2="310.16" xlink:href="#linear-gradient"/>
    <linearGradient id="linear-gradient-8" x1="443.58" y1="534.58" x2="467.21" y2="534.58" xlink:href="#linear-gradient"/>
    <linearGradient id="linear-gradient-9" x1="490.82" y1="534.58" x2="514.46" y2="534.58" xlink:href="#linear-gradient"/>
    <linearGradient id="linear-gradient-10" x1="538.07" y1="534.58" x2="561.7" y2="534.58" xlink:href="#linear-gradient"/>
    <linearGradient id="linear-gradient-11" x1="585.31" y1="534.58" x2="608.95" y2="534.58" xlink:href="#linear-gradient"/>
    <linearGradient id="linear-gradient-12" x1="325.47" y1="770.8" x2="349.1" y2="770.8" xlink:href="#linear-gradient"/>
    <linearGradient id="linear-gradient-13" x1="372.71" y1="770.8" x2="396.34" y2="770.8" xlink:href="#linear-gradient"/>
    <linearGradient id="linear-gradient-14" x1="419.96" y1="770.8" x2="443.59" y2="770.8" xlink:href="#linear-gradient"/>
    <linearGradient id="linear-gradient-15" x1="467.2" y1="770.8" x2="490.83" y2="770.8" xlink:href="#linear-gradient"/>
  </defs>
  <path class="cls-12" d="M738.22,546.39c-24.11,0-48.23,0-72.34,0q-9.64,0-9.69,9.52c-.11,19.11-10.82,33.14-28.47,36.92-3.32.71-6.83.77-10.26.77-60.78.04-121.56.05-182.33.02-24.4,0-39.01-14.51-38.62-39.12.11-6.71-1.65-8.33-8.31-8.29-47.24.31-94.49.14-141.73.17-37.83.02-62.69,24.97-62.72,62.91-.02,29.28-.05,58.56,0,87.85.07,36.42,25.29,61.71,61.59,61.83,9.35.03,18.71-.18,28.05.09,3.83.11,5.1-.95,4.93-4.87-.22-5.12-.38-10.27.97-15.39,4.16-15.78,17.4-26.94,33.63-26.98,63.48-.17,126.97-.21,190.45.02,19.81.07,34.46,15.96,34.7,36.47q.12,10.67,10.75,10.67c25.1,0,50.2-.23,75.29.15,6.78.1,9.31-1.1,10.32-8.73,7.36-55.22,55.03-101.59,110.34-108.22,70.41-8.45,131.55,35.74,145.5,105.15,14.29,71.17-38.1,143.43-110.27,152.08-73.01,8.74-135.25-38.88-146.11-111.94-.53-3.59-1.56-4.97-5.42-4.94-28.54.16-57.09.16-85.63,0-3.92-.02-5.02,1.11-4.87,4.93.2,5.13.36,10.27-1,15.39-4.2,15.78-17.41,26.89-33.68,26.93-63.48.17-126.97.22-190.45-.03-19.79-.08-34.41-16.04-34.62-36.54-.11-10.59-.11-10.43-10.83-10.63-15.19-.28-30.44,1.21-45.49-2.73-35.15-9.19-61.04-40.99-61.61-77.36-.51-32.47-.42-64.96-.1-97.44.46-45.67,36.47-81.83,82.14-82.19,48.96-.38,97.93-.19,146.9.03,5.58.02,7.33-1.12,7.27-7.07-.29-26.63,13.66-40.3,40.39-40.3,60.04,0,120.08-.01,180.12,0,24.93,0,39.39,14.35,39.01,39.46-.1,6.43,1.4,8,7.92,7.96,47.24-.33,94.49-.16,141.73-.18,38.29-.02,63.08-24.89,63.11-63.28.02-25.34.06-50.69-.01-76.03-.11-35.96-25.39-61.31-61.21-61.46-9.6-.04-19.2.14-28.79-.08-3.52-.08-4.72.9-4.55,4.5.21,4.4.3,8.93-.45,13.24-3.04,17.4-17.4,29.51-35.3,29.54-62.75.11-125.49.13-188.24,0-20.78-.05-35.6-15.63-35.78-36.92q-.09-10.27-10.41-10.27c-17.96,0-35.93.11-53.89-.08-4.33-.04-6.5.38-6.44,5.78.18,15.54-.11,15.54-15.25,19.67-3.79,1.03-7.59,2.01-11.35,3.14-5.94,1.8-8.35,7.56-5.36,12.95,3.69,6.65,7.28,13.38,11.35,19.79,2.11,3.32,1.85,5.34-.94,8.07-13.18,12.91-26.24,25.95-39.14,39.14-2.77,2.83-4.8,3-8.08.93-6.22-3.92-12.74-7.38-19.16-10.98-6.3-3.53-11.83-1.23-13.81,5.76-2,7.08-4.18,14.13-5.74,21.32-.78,3.59-2.17,4.8-5.83,4.77-18.7-.16-37.4-.18-56.1.02-3.62.04-5.25-1.15-6.09-4.53-1.78-7.14-3.78-14.23-5.77-21.31-2.13-7.56-7.18-9.59-14.14-5.7-5.78,3.23-11.68,6.29-17.23,9.9-4.1,2.66-6.77,2.87-10.53-1.1-12.37-13.01-25.19-25.61-38.04-38.16-2.74-2.67-3.33-4.63-1.2-8,4.06-6.43,7.71-13.11,11.37-19.78,3.25-5.92,1.12-11.18-5.3-13.06-7.53-2.21-15.09-4.4-22.73-6.15-3.35-.77-4.32-2.27-4.3-5.52.11-18.95.18-37.9-.06-56.84-.05-3.68,1.71-4.6,4.52-5.32,6.89-1.77,13.78-3.55,20.64-5.43,8.78-2.41,10.86-7.34,6.44-15.16-3.51-6.19-6.89-12.47-10.66-18.5-1.88-3.01-1.8-4.87.86-7.47,13.37-13.07,26.59-26.31,39.68-39.66,2.52-2.57,4.33-3.02,7.46-1.05,6.43,4.06,13.11,7.73,19.76,11.41,6.15,3.41,11.37,1.19,13.32-5.62,2.09-7.31,4.14-14.64,6.01-22.01.84-3.29,2.28-4.67,6-4.62,18.45.23,36.91.19,55.36.03,3.76-.03,5.71.78,6.56,4.89,1.49,7.19,3.72,14.24,5.72,21.32,2.04,7.23,7.36,9.48,13.86,5.94.22-.12.43-.23.65-.34,7.76-4.08,15.63-13.03,22.91-11.53,7.28,1.5,12.89,11.31,19.17,17.54,7.86,7.8,15.52,15.8,23.55,23.42,2.88,2.74,3.08,4.79,1.01,8.08-4.04,6.44-7.69,13.13-11.38,19.78-3.01,5.42-.56,11.02,5.51,12.75,6.84,1.95,13.64,4.15,20.58,5.64,4.61.99,6.3,2.82,6.22,7.78-.26,14.44,0,14.45,14.36,14.45,16.98,0,33.96-.15,50.93.1,4.25.06,5.47-1.21,5.2-5.33-.53-7.91-.02-15.74,3.99-22.91,6.8-12.15,17.15-18.98,31.08-19.02,63.24-.17,126.48-.2,189.72,0,19.93.06,34.71,15.78,34.99,36.19.15,10.97.15,10.8,11.19,11.01,14.95.28,29.95-1.21,44.76,2.64,35.67,9.29,61.39,40.92,62,77.79.48,29.03.53,58.08,0,87.1-.8,43.72-36.49,79.4-80.21,80.32-24.6.51-49.21.09-73.82.09v.06ZM656.19,770.62c-.06,58.66,47.69,106.49,106.3,106.47,58.31-.02,106.08-47.55,106.28-105.77.2-58.72-47.38-106.7-105.95-106.82-58.71-.12-106.58,47.51-106.64,106.12ZM375,404.15c1.12-.88,2.36-1.68,3.39-2.68,3.17-3.09,6.26-6.25,9.39-9.38,8.34-8.35,8.91-8.74,2.46-18.22-6.07-8.93-8.18-17-1.27-26.37,2.24-3.03,3.3-7.15,4.13-10.94.77-3.52,2.82-4.77,5.89-5.61,6.83-1.87,15.79-1.96,19.83-6.43,4.44-4.91.63-14.1,1.51-21.33.7-5.75-1.27-8.65-7.07-9.24-12.96-1.3-22.45-6.66-24.47-20.95-.33-2.32-1.68-4.68-3.13-6.6-2.96-3.95-2.37-7.29.18-11.27,3.56-5.55,9.17-11.67,8.88-17.3-.31-6.17-9.03-9.61-13.06-15.07-4.29-5.81-8.56-5.98-13.83-1.67-9.55,7.82-18.45,7.79-30.45,2.68-11.05-4.71-16.5-10.62-17.74-21.49-.93-8.18-4.86-10.46-13.01-10.17-19.01.68-19.15.19-23.92,18.74-1.31,5.1-3.11,8.46-8.95,9.83-5.87,1.37-11.45,4.33-16.87,7.13-3.16,1.63-5.46,1.79-8.67-.05-6.34-3.63-12.95-10.95-19.1-9.62-6.1,1.32-10.42,9.81-16.09,14.48-4.48,3.69-4.25,7-1.09,10.95,8.31,10.37,11.23,21.11,2.44,32.74-.29.38-.58.86-.63,1.32-1.07,9.5-7.14,12.91-15.87,14.88-13.97,3.15-13.85,3.68-13.85,17.77,0,15.17-.11,15.69,14.7,18.74,8.11,1.67,13.05,4.85,14.77,13.29.91,4.45,3.22,8.76,5.58,12.73,2.31,3.89,2.09,6.98-.25,10.75-3.59,5.79-9.74,12.37-8.98,17.8.77,5.51,9,9.71,13.23,15.07,4.24,5.37,8.16,5.83,13.34,1.64,9.69-7.84,19.73-10.7,30.75-2.12,2.21,1.72,5.38,2.51,8.24,3,4,.68,5.68,2.83,6.63,6.61,1.73,6.83,2,16.15,6.54,19.55,4.63,3.47,13.71.57,20.74,1.37,6.3.71,9.17-1.76,9.69-7.61,1.15-12.99,7-21.8,20.72-23.84.69-.1,1.41-.5,1.98-.94,7.55-5.8,14.54-4.42,21.67,1.09,3.46,2.67,7.59,4.46,11.62,6.76ZM643.61,345.59c30.97,0,61.94.04,92.91-.02,9.67-.02,14.06-4.32,14.12-13.82.1-14.26.08-28.51,0-42.77-.05-10-4.33-14.22-14.46-14.23-61.2-.03-122.4-.03-183.6,0-10.45,0-14.46,4.19-14.5,14.93-.04,13.52-.04,27.04,0,40.56.03,11.46,3.96,15.34,15.57,15.35,29.99.02,59.97,0,89.96,0ZM526.19,499.15c-30.72,0-61.45-.04-92.17.02-9.64.02-13.97,4.34-14.03,13.9-.09,14.26-.08,28.51,0,42.77.06,9.95,4.34,14.14,14.53,14.15,61.2.03,122.4.03,183.61,0,10.12,0,14.36-4.24,14.41-14.28.07-13.27.03-26.55.02-39.82,0-13.16-3.5-16.73-16.41-16.74-29.99-.01-59.97,0-89.96,0ZM408.8,735.37c-30.97,0-61.94-.04-92.91.02-9.63.02-13.95,4.34-14.01,13.91-.09,14.26-.08,28.51,0,42.77.06,9.95,4.35,14.13,14.55,14.14,61.2.03,122.41.03,183.61,0,10.11,0,14.34-4.25,14.4-14.3.07-13.52.03-27.04.01-40.56-.02-12.15-3.75-15.97-15.68-15.98-29.99-.02-59.97,0-89.96,0Z"/>
  <path class="cls-15" d="M711.35,786.69c2.92.86,4.35,3.31,6.22,5.15q9.54,9.43,18.87.1c24.15-24.15,48.36-48.24,72.38-72.52,3.2-3.23,4.95-3.97,8.57-.31,12.6,12.75,12.77,12.58.16,25.19-28.67,28.67-57.4,57.27-85.91,86.09-3.57,3.61-5.48,3.95-9.07.07-7.66-8.29-15.75-16.22-23.95-23.99-3.1-2.94-3.04-4.77.1-7.47,3.53-3.03,6.65-6.55,9.96-9.84.87-.86,1.79-1.66,2.67-2.48Z"/>
  <path class="cls-3" d="M302.08,381.27c-38.99-.06-70.89-32.02-70.75-70.9.14-38.81,32.37-70.88,71.1-70.76,38.97.13,70.62,32.03,70.55,71.11-.08,39.23-31.61,70.6-70.89,70.54ZM349.35,310.28c-.12-26.15-21.62-47.41-47.56-47.03-25.71.37-46.81,21.64-46.86,47.24-.05,26.01,21.28,47.23,47.43,47.17,26.28-.05,47.11-21.05,46.99-47.38Z"/>
  <path class="cls-8" d="M585.32,310.75q0,11.23-11.66,11.23-11.97,0-11.97-11.66,0-11.97,11.66-11.97,11.97,0,11.97,12.4Z"/>
  <path class="cls-1" d="M620.04,321.98q-11.1,0-11.1-11.05,0-12.58,12.53-12.58,11.1,0,11.1,11.05,0,12.58-12.53,12.58Z"/>
  <path class="cls-9" d="M668.58,321.98q-12.4,0-12.4-12.71,0-10.93,11.23-10.93,12.4,0,12.4,12.71,0,10.93-11.23,10.93Z"/>
  <path class="cls-4" d="M714.89,321.98q-11.46,0-11.46-11.43,0-12.2,12.17-12.2,11.46,0,11.46,11.43,0,12.2-12.17,12.2Z"/>
  <path class="cls-14" d="M455.93,546.39q-12.35,0-12.35-12.76,0-10.87,10.54-10.87,13.09,0,13.09,12.76,0,10.87-11.28,10.87Z"/>
  <path class="cls-2" d="M514.46,535.01q0,11.38-11.51,11.38-12.12,0-12.12-12.25,0-11.38,11.51-11.38,12.12,0,12.12,12.25Z"/>
  <path class="cls-5" d="M549.4,546.39q-11.33,0-11.33-11.56,0-12.07,12.3-12.07,11.33,0,11.33,11.57,0,12.07-12.3,12.07Z"/>
  <path class="cls-13" d="M597.72,522.76q11.23,0,11.23,11.66,0,11.97-11.66,11.97-11.97,0-11.97-11.66,0-11.97,12.4-11.97Z"/>
  <path class="cls-6" d="M349.1,771.51q0,11.1-11.05,11.1-12.58,0-12.58-12.53,0-11.1,11.05-11.1,12.58,0,12.58,12.53Z"/>
  <path class="cls-11" d="M396.34,770.91q0,11.71-11.93,11.71-11.71,0-11.71-11.93,0-11.7,11.93-11.7,11.71,0,11.71,11.93Z"/>
  <path class="cls-10" d="M419.96,770.21q0-11.23,11.66-11.23,11.97,0,11.97,11.66,0,11.97-11.66,11.97-11.97,0-11.97-12.4Z"/>
  <path class="cls-7" d="M490.83,771.15q0,11.46-11.43,11.46-12.2,0-12.2-12.17,0-11.46,11.43-11.46,12.2,0,12.2,12.17Z"/>
</svg>