<?xml version="1.0" encoding="UTF-8"?>
<svg id="Layer_1" xmlns="http://www.w3.org/2000/svg" xmlns:xlink="http://www.w3.org/1999/xlink" viewBox="0 0 1080 1080">
  <defs>
    <style>
      .cls-1 {
        fill: url(#linear-gradient-5);
      }

      .cls-1, .cls-2, .cls-3, .cls-4, .cls-5, .cls-6, .cls-7, .cls-8, .cls-9, .cls-10, .cls-11, .cls-12, .cls-13, .cls-14, .cls-15 {
        stroke: #fff;
        stroke-miterlimit: 10;
      }

      .cls-2 {
        fill: url(#linear-gradient-9);
      }

      .cls-3 {
        fill: url(#linear-gradient-3);
      }

      .cls-4 {
        fill: url(#linear-gradient-7);
      }

      .cls-5 {
        fill: url(#linear-gradient-10);
      }

      .cls-6 {
        fill: url(#linear-gradient-12);
      }

      .cls-7 {
        fill: url(#linear-gradient-15);
      }

      .cls-8 {
        fill: url(#linear-gradient-4);
      }

      .cls-9 {
        fill: url(#linear-gradient-6);
      }

      .cls-10 {
        fill: url(#linear-gradient-14);
      }

      .cls-11 {
        fill: url(#linear-gradient-13);
      }

      .cls-12 {
        fill: url(#linear-gradient);
      }

      .cls-13 {
        fill: url(#linear-gradient-11);
      }

      .cls-14 {
        fill: url(#linear-gradient-8);
      }

      .cls-15 {
        fill: url(#linear-gradient-2);
      }
    </style>
    <linearGradient id="linear-gradient" x1="433.31" y1="591.7" x2="644.61" y2="591.7" gradientUnits="userSpaceOnUse">
      <stop offset="0" stop-color="#2ac4f7"/>
      <stop offset="1" stop-color="#97d628"/>
    </linearGradient>
    <linearGradient id="linear-gradient-2" x1="431.85" y1="419.64" x2="644.69" y2="419.64" xlink:href="#linear-gradient"/>
    <linearGradient id="linear-gradient-3" x1="601.22" y1="564.54" x2="749.78" y2="564.54" xlink:href="#linear-gradient"/>
    <linearGradient id="linear-gradient-4" x1="328.29" y1="563.43" x2="475.78" y2="563.43" xlink:href="#linear-gradient"/>
    <linearGradient id="linear-gradient-5" x1="328.02" y1="419.85" x2="438" y2="419.85" xlink:href="#linear-gradient"/>
    <linearGradient id="linear-gradient-6" x1="639.16" y1="419.92" x2="749.69" y2="419.92" xlink:href="#linear-gradient"/>
    <linearGradient id="linear-gradient-7" x1="101.53" y1="533.7" x2="197.1" y2="533.7" xlink:href="#linear-gradient"/>
    <linearGradient id="linear-gradient-8" x1="880.42" y1="533.73" x2="976.02" y2="533.73" xlink:href="#linear-gradient"/>
    <linearGradient id="linear-gradient-9" x1="524.09" y1="923.48" x2="553.44" y2="923.48" xlink:href="#linear-gradient"/>
    <linearGradient id="linear-gradient-10" x1="524.1" y1="144.12" x2="553.45" y2="144.12" xlink:href="#linear-gradient"/>
    <linearGradient id="linear-gradient-11" x1="225.12" y1="809.28" x2="301.37" y2="809.28" xlink:href="#linear-gradient"/>
    <linearGradient id="linear-gradient-12" x1="776.09" y1="809.27" x2="852.42" y2="809.27" xlink:href="#linear-gradient"/>
    <linearGradient id="linear-gradient-13" x1="225.2" y1="258.35" x2="301.47" y2="258.35" xlink:href="#linear-gradient"/>
    <linearGradient id="linear-gradient-14" x1="776.14" y1="258.32" x2="852.37" y2="258.32" xlink:href="#linear-gradient"/>
    <linearGradient id="linear-gradient-15" x1="474.64" y1="639.31" x2="476.61" y2="639.31" xlink:href="#linear-gradient"/>
  </defs>
  <path class="cls-12" d="M538.77,695.7c-28.05-54.33-55.15-106.84-82.26-159.35-6.96-13.48-13.64-27.1-21-40.36-3.62-6.51-3.31-8.35,4.85-8.3,50.48.31,100.97.16,151.45.16,15.81,0,31.63,0,47.44,0,3.42,0,7.29-.77,4.25,5.1-34.68,66.98-69.26,134.01-104.74,202.75Z"/>
  <path class="cls-15" d="M644.36,458.21h-212.51c7.4-14.55,14.34-28.25,21.33-41.93,5.11-10,10.44-19.88,15.31-29.99,1.83-3.81,4.02-5.23,8.32-5.22,41.38.17,82.76.12,124.15.07,3.18,0,5.62.22,7.37,3.7,11.98,23.85,24.21,47.57,36.31,71.36.22.43-.14,1.16-.26,2Z"/>
  <path class="cls-3" d="M749.78,487.83c-50.47,52.3-99.12,102.72-148.18,153.56-1.19-3.51.74-5.11,1.62-6.83,24.03-46.68,48.27-93.26,72.18-140,2.57-5.02,5.37-6.97,11.07-6.87,20.27.36,40.55.14,63.31.14Z"/>
  <path class="cls-8" d="M474.64,639.08c-16.57-16.88-33.23-33.67-49.69-50.65-29.83-30.78-59.54-61.67-89.29-92.52-2.06-2.14-4.01-4.38-7.36-8.06,23.41,0,45.09.05,66.76-.05,3.48-.02,4.63,2.17,5.91,4.66,24.93,48.53,49.88,97.04,74.82,145.56-.4.34-.78.69-1.15,1.07Z"/>
  <path class="cls-1" d="M328.02,458.66c16.79-17.59,32.26-33.79,47.72-50,2.31-2.42,4.63-4.83,6.96-7.24q21.89-22.7,55.3-19.62c-10.05,19.67-21.09,38.55-29.45,58.55-6.2,14.83-14.55,20.38-30.61,18.67-15.86-1.69-32.04-.37-49.92-.37Z"/>
  <path class="cls-9" d="M749.69,458.66c-23.78,0-45.33-.02-66.88.03-2.7,0-4.39-.79-5.71-3.4-12.33-24.3-24.82-48.53-37.94-74.11,11.94,0,22.71.05,33.47-.04,2.42-.02,3.89,1.19,5.42,2.78,23.34,24.39,46.71,48.74,71.64,74.74Z"/>
  <path class="cls-4" d="M149.17,548.37c-10.34,0-20.68.16-31.01-.04-10.38-.2-16.42-5.5-16.63-14.15-.22-8.73,5.72-14.84,15.84-14.98,21.28-.31,42.56-.31,63.84,0,9.83.15,16.2,6.72,15.88,15.09-.32,8.11-6.49,13.77-16,14-10.63.26-21.28.06-31.92.07Z"/>
  <path class="cls-14" d="M928.67,519.09c10.34,0,20.68-.23,31.01.07,10.27.29,16.3,5.92,16.35,14.55.05,8.73-5.97,14.5-16.18,14.6-20.97.22-41.95.2-62.93,0-10.01-.09-16.44-6.04-16.49-14.44-.05-8.3,6.42-14.43,16.32-14.72,10.63-.31,21.28-.07,31.92-.07Z"/>
  <path class="cls-2" d="M553.39,923.79c0,10.34.13,20.68-.04,31.02-.16,9.96-5.97,16.34-14.54,16.38-8.57.04-14.55-6.35-14.62-16.27-.15-20.99-.14-41.97,0-62.96.06-10.02,5.8-16.18,14.52-16.21,8.77-.03,14.48,6.09,14.64,16.1.17,10.64.04,21.29.04,31.94Z"/>
  <path class="cls-5" d="M524.15,143.8c0-10.34-.12-20.68.03-31.02.15-10.01,5.88-16.32,14.5-16.36,8.61-.04,14.58,6.29,14.65,16.22.15,20.98.15,41.96,0,62.94-.07,10.14-5.69,16.18-14.51,16.22-8.81.04-14.49-6.03-14.65-16.08-.16-10.64-.04-21.28-.04-31.93Z"/>
  <path class="cls-13" d="M301.37,785.88c.05,4.6-2.17,8.11-5.27,11.22-15.05,15.05-29.99,30.2-45.19,45.09-6.75,6.62-15.14,6.78-21.12,1.06-6.39-6.11-6.32-14.54.77-21.76,14.91-15.18,30.07-30.12,45.09-45.19,5.07-5.08,11.01-6.56,17.46-3.55,5.33,2.49,8.17,7.08,8.25,13.13Z"/>
  <path class="cls-6" d="M790.49,771.24c4.47.09,8.19,1.83,11.35,5,15.03,15.06,30.2,29.99,45.1,45.19,7.12,7.26,7.2,15.67.86,21.78-6.13,5.92-14.62,5.48-21.79-1.59-14.93-14.73-29.67-29.65-44.52-44.47-4.68-4.68-6.88-10.04-4.33-16.49,2.35-5.92,6.95-9.01,13.32-9.41Z"/>
  <path class="cls-11" d="M241.32,220.35c2.95-.19,6.34,1.74,9.22,4.61,15.29,15.23,30.65,30.4,45.75,45.81,6.68,6.82,6.78,15.06.99,21.09-5.98,6.21-14.73,6.08-21.79-.86-15.17-14.92-30.13-30.05-45.17-45.11-4.71-4.72-6.57-10.22-3.87-16.58,2.49-5.87,7.11-8.86,14.87-8.96Z"/>
  <path class="cls-10" d="M852.37,235.1c-.61,5.11-2.81,8.59-5.95,11.7-14.67,14.56-29.18,29.28-43.9,43.79-7.22,7.12-15.68,7.61-21.82,1.71-6.48-6.23-6.11-14.82,1.37-22.4,14.74-14.92,29.65-29.67,44.47-44.52,5.03-5.04,10.82-6.59,17.4-3.58,5.9,2.7,8.18,7.76,8.43,13.29Z"/>
  <path class="cls-7" d="M475.78,638.01c.66.85,1.4,1.71.14,2.6-.05.03-.84-1-1.29-1.53.36-.38.75-.73,1.15-1.07Z"/>
</svg>