<?xml version="1.0" encoding="UTF-8"?>
<svg xmlns="http://www.w3.org/2000/svg" version="1.1" xmlns:xlink="http://www.w3.org/1999/xlink" viewBox="0 0 1984.25 2834.65">
  <defs>
    <style>
      .cls-1 {
        fill: url(#linear-gradient-3);
      }

      .cls-1, .cls-2, .cls-3 {
        stroke: #fff;
        stroke-miterlimit: 10;
      }

      .cls-2 {
        fill: url(#linear-gradient);
      }

      .cls-3 {
        fill: url(#linear-gradient-2);
      }
    </style>
    <linearGradient id="linear-gradient" x1="279.98" y1="1417.32" x2="1704.27" y2="1417.32" gradientUnits="userSpaceOnUse">
      <stop offset="0" stop-color="#35c1f1"/>
      <stop offset="1" stop-color="#98c93c"/>
    </linearGradient>
    <linearGradient id="linear-gradient-2" x1="543.88" y1="1004.84" x2="1441.38" y2="1004.84" xlink:href="#linear-gradient"/>
    <linearGradient id="linear-gradient-3" x1="725.84" y1="991.8" x2="1259.1" y2="991.8" xlink:href="#linear-gradient"/>
  </defs>
  <!-- Generator: Adobe Illustrator 28.6.0, SVG Export Plug-In . SVG Version: 1.2.0 Build 709)  -->
  <g>
    <g id="Layer_1">
      <g>
        <path class="cls-2" d="M940.51,2447.36c46.2-36.99,88.28-70.84,130.53-104.48,27.62-21.99,41.34-22.14,68.62-.52,42.79,33.91,85.38,68.07,131.5,104.89v-26.78c0-265.94-.24-531.88.49-797.81.05-19.56-5.61-29.54-24.18-34.88-79.86-22.99-70.38-23.48-114.18,36.09-20.34,27.67-36.82,58.15-59.76,83.96-50.47,56.78-108.12,57.44-159.45,1.78-26.96-29.24-45.83-64.34-68.83-96.44q-30.96-43.22-82.04-30.47-70.83,17.66-70.83,89.01c0,132.52,0,265.05,0,403.26,21.21-16.88,39.37-31.33,57.53-45.79,25.56-20.36,50.99-40.89,76.72-61.04,23.7-18.55,38.88-18.9,62.6-.21,43.63,34.38,86.77,69.36,133.85,107.08,0-58.3,0-112.11,0-165.92,0-13.77-.24-27.55.06-41.31.62-28.23,16.63-46.42,40.77-46.72,24.17-.31,41.44,17.9,41.72,45.81.49,49.05.14,98.11.14,147.17,0,44.75-.43,89.51.19,134.26.29,21.19-3.45,39.45-24.44,49.66-21.56,10.49-37.7-.29-53.76-13.23-50.89-41.01-102.52-81.13-152.8-122.88-13.54-11.24-21.5-10.24-34.51.48-50.44,41.55-102.08,81.64-153.06,122.53-16.09,12.91-32.27,23.51-53.83,13.02-21.14-10.28-24.09-28.65-24.05-49.76.35-166.1.05-332.21.43-498.31.04-15.74-.26-24.98-20.87-28.16-40.56-6.27-64.22-38.1-72.18-86.49-5.52-33.54-1.32-66.83-.43-100.34,2.43-91.17.69-82.8-75.74-107.36-33.44-10.75-68.23-17.38-100.05-33.06-60.24-29.67-76.93-80.61-44.23-138.84,10.46-18.62,23.93-35.61,36.63-52.9,12.72-17.32,26.76-33.69,39.21-51.19,30.5-42.86,30.34-50.77-1.12-92.85-11.83-15.83-24.93-30.71-36.92-46.43-10.4-13.64-21.11-27.22-29.86-41.92-43.37-72.89-25.15-126.84,52.92-161.42,32.51-14.4,67.58-19.2,101.09-29.64,54.11-16.85,58.44-23.55,58.77-79.95.23-39.56-4.34-79.05-.73-118.68,6.23-68.45,50.83-103.07,118.08-91.33,41.78,7.29,79.73,26.23,119.76,38.82,51.46,16.18,58.95,14.23,90.23-29.45,20.01-27.93,38-57.4,59.09-84.46,56.33-72.28,122.45-72.28,178.86.24,23.71,30.47,44.72,63.07,66.39,95.09,16.41,24.26,36.51,32.39,65.89,23.72,23.17-6.84,45.3-15.75,67.54-24.64,24.01-9.6,48.39-17.19,74.28-20.02,60.71-6.64,98.53,21.08,111.11,81.26,7.52,35.97,4.56,71.86,1.64,107.92-6.28,77.58-.17,86.54,74.31,105.7,34.07,8.77,68.66,15.58,100.11,32.33,59.78,31.83,75,78.76,45.85,140.04-18.02,37.87-48.32,66.65-72.74,99.78-34.97,47.44-34.9,51.66-.9,98.78,21.13,29.27,47.22,54.63,65.6,86.07,42.32,72.42,25.69,126.1-50.45,160.81-25.93,11.82-53.81,17.07-81.03,24.79-81.32,23.07-85.69,23.53-80.27,114.18,1.96,32.73,4.6,65.08-1.88,97.6-11.85,59.58-39.69,84.48-99.72,86.13-11.28.31-15.75,2.76-14.42,14.09.6,5.09.1,10.32.1,15.48,0,284.87,0,569.74,0,854.61,0,6.02-.21,12.06.03,18.07.79,19.76-5.82,35.2-24.48,44.29-18.15,8.84-33.2,2.6-47.51-8.85-52.38-41.9-105.43-83.01-156.87-126.05-15.29-12.79-24.42-11.38-38.78.48-50.38,41.63-102,81.75-152.9,122.76-15.64,12.6-31.58,21.11-51.78,11.03-19.73-9.84-24.01-26.89-23.92-47.32.43-90.37.11-180.73.23-271.1.04-32.3,15.56-51.29,41.29-51.26,25.66.03,41.24,19.11,41.31,51.34.15,63.56.04,127.12.04,195.84ZM598.87,1433.23c-1.7,31.08-3.68,59.31.12,87.76,2.23,16.68,8.46,21.5,25.41,18.5,41.05-7.26,78.05-25.96,117.02-38.99,73.04-24.42,116.64-10.83,160.95,51.48,20.91,29.4,39.78,60.33,61.85,88.81,25.88,33.41,34.04,32.93,58.57-1.09,21.09-29.23,39.3-60.56,60.78-89.48,42.42-57.11,87.85-72.15,155.83-51.47,38.51,11.71,75.89,27.12,114.29,39.23,28.51,8.99,32.83,5.18,35.11-24.78,2.43-31.9-2.7-63.56-3.64-95.35-2.9-97.77,28.11-139.62,122.09-166.18,28.06-7.93,56.44-14.88,84.08-24.05,35.42-11.75,37.26-16.35,15.9-47.69-20.3-29.8-43.41-57.67-64.75-86.78-48.39-65.99-48.32-109.32.27-175.63,21.33-29.12,44.31-57.08,64.69-86.83,19.93-29.08,18.31-34.81-15.28-46.79-35.49-12.67-72.3-21.6-108.28-32.96-71.04-22.42-97.17-58.04-97.7-132.55-.1-14.61,1.21-29.22,1.53-43.84.51-23.22,2.1-46.52.77-69.64-2.06-35.76-7.72-39.14-42.97-29.94-10.78,2.81-21.34,6.51-31.89,10.11-30.84,10.5-61.27,22.42-92.54,31.45-48.42,13.98-90.3,2.46-122.18-37.86-13.84-17.5-26.26-36.12-39.13-54.37-11.89-16.85-22.69-34.52-35.43-50.69-28.93-36.72-36.56-36.69-63.38.49-15.56,21.57-29.49,44.32-44.13,66.55-52.64,79.92-103.62,96.91-193.58,64.55-31.45-11.31-62.16-24.49-94.5-33.57-21.65-6.08-29.61-.5-31.16,21.83-2.88,41.43,3.9,82.47,2.65,123.8-2.18,71.91-29.62,111.17-98.19,134.47-34.06,11.57-69.32,19.57-103.74,30.18-39,12.02-42.04,21.18-17.92,53.48,23.14,30.97,48.58,60.31,70.47,92.11,35.43,51.46,35.35,104.76-.05,156.38-17.46,25.46-38.57,48.39-56.63,73.47-38.74,53.81-49.74,53.59,25.53,79.16,37.3,12.67,76.6,19.09,112.78,35.54,35.5,16.15,56.68,42.66,63.55,81.55,4.86,27.51,2.4,54.9,2.81,79.64Z"/>
        <path class="cls-3" d="M1175.33,1406.86c-22.87-1.99-45.28,6.51-66.85,17.59-16.78,8.61-33.17,17.99-49.66,27.15-48.01,26.66-95,25.76-140.81-5.25-37.89-25.65-78.72-38.74-125.37-40.15-57.58-1.74-99.62-32.72-119.08-87.18-15.64-43.78-40.16-78.63-77.24-106.36-45.57-34.08-63.05-87.45-46.05-142.22,13.49-43.45,13.66-85.51.32-128.96-17.6-57.34-.1-108.95,49.08-145.73,34.25-25.61,57.92-57.76,71.8-98,20.08-58.26,61.84-90.48,122.94-92.87,47.24-1.85,88.02-16.07,127.13-42.45,47.21-31.83,97.91-30.96,144.94,1.34,37.4,25.68,76.94,39.4,122.37,40.87,63.64,2.05,106.18,35.59,126.69,95.46,13.29,38.82,36.17,69.48,68.71,94.03,51.96,39.21,68.46,89.68,49.63,152.47-11.72,39.08-11.97,77.59-.42,116.65,19.22,64.98,3.28,113.88-50.2,154.5-31.65,24.05-54.14,54.07-67.25,92.01-22.63,65.52-69.28,97.44-140.66,97.11ZM628.16,1101.65c-.05,20.41,4.16,35.21,17.83,45.05,48.89,35.23,83.37,80.65,102.5,138.18,9.14,27.49,30.04,40.07,59.48,40.01,53.07-.1,101.17,16.43,145.02,46,34.11,23,45.67,23.01,79.18.37,42.26-28.56,88.6-46.17,139.77-45.97,36.35.14,58.6-15.66,69.45-49.17,15.57-48.09,42.93-87.37,84.42-116.8,8.28-5.87,15.34-13.86,21.8-21.81,9.67-11.91,14.45-26.2,9.43-41.06-19.65-58.11-19.83-116.12-1.9-174.58,8.02-26.15-.21-47.02-22.04-63.27-42.32-31.51-74.84-70.35-90.81-121.71-10.72-34.49-33.47-51.37-70.84-51.28-51.21.12-97.5-17.3-139.69-46.08-32.61-22.24-44.92-22.42-77-.67-40.7,27.6-85.18,46-134.43,46.13-42.55.11-68.18,18.28-79.68,58.23-12.93,44.92-40.93,80.27-77.61,106.4-35.12,25.02-40.7,54.17-28.24,91.72,14.25,42.93,13.46,86,.06,129.15-3.54,11.4-5.08,23.42-6.7,31.16Z"/>
        <path class="cls-1" d="M995.19,735.89c24.08.82,44.9,11.14,59.95,32.04,10.03,13.92,21.8,27.3,28.49,42.78,18.54,42.88,51.58,57.13,95.55,54.64,9.13-.52,18.88,1.69,27.66,4.66,48.75,16.52,67.53,73.18,38.45,115.58-5.31,7.75-11.02,15.95-18.4,21.43-46.59,34.63-54.39,77.21-30.25,128.81,6.74,14.4,9.25,31.25,6.07,47.97-9.56,50.22-61.75,77.47-108.83,55.38-29.46-13.82-58.12-29.49-86.37-45.67-11.23-6.43-19.52-5.79-30.42.3-28.41,15.88-57.38,30.8-86.48,45.38-28.21,14.14-55.46,10.37-79.42-9.25-24.67-20.21-33.86-46.88-26.11-78.38,5.73-23.31,10.61-46.96,18.42-69.57,5.38-15.57,1.37-25.63-9.27-36.48-16.83-17.15-33.95-34.36-48.36-53.48-41.34-54.86-16.12-115.36,51.7-126.18,1.7-.27,3.46-.69,5.12-.5,53.4,6.27,86.05-20.29,107.3-66.44,5.32-11.54,13.59-21.88,21.42-32.08,15.57-20.3,36.33-30.83,63.77-30.93ZM993.16,823.61c-22.46,32.94-41.41,65.76-65.31,94.45-27.17,32.63-70.86,21.56-109.52,31.48,16.88,18.68,31.89,34.91,46.48,51.51,24.34,27.69,34.3,57.72,20.63,94.79-6.75,18.3-13.74,37.78-13.4,61.25,26.43-14.4,50.32-27.6,74.38-40.48,31.81-17.02,62.92-18.73,94.97,1.25,22.99,14.33,47.85,25.65,71.87,38.31,2.66.05,5.33.11,7.99.16-47.92-84.72-25.56-152.18,53.03-208.04-24.77-2.34-40.13-3.97-55.51-5.21-32.64-2.64-58.84-14.64-76.08-44.81-14.29-25.01-31.79-48.19-49.53-74.65Z"/>
      </g>
    </g>
  </g>
</svg>