<?xml version="1.0" encoding="UTF-8"?>
<svg xmlns="http://www.w3.org/2000/svg" version="1.1" viewBox="0 0 314 160" height='100' width='100'>
  <defs>
    <style>
      .cls-1 {
        fill: #fff;
      }

      .cls-1, .cls-2 {
        fill-rule: evenodd;
      }
    </style>
  </defs>
  <!-- Generator: Adobe Illustrator 28.6.0, SVG Export Plug-In . SVG Version: 1.2.0 Build 709)  -->
  <g>
    <g id="Layer_1">
      <path class="cls-2" d="M168.5,41.5c.7,6,1.3,12,2,18,0,.5-.4.9-1,1-1-6.3-1.3-12.6-1-19Z"/>
      <path class="cls-2" d="M119.5,41.5h7v6h-7v-6Z"/>
      <path class="cls-2" d="M132.5,41.5h7v14h17v7h-17c-.2,6,0,12,.5,18,2.7,6.4,7.5,9.4,14.5,9v6c-11.1.7-18.3-4.3-21.5-15-.5-13-.7-26-.5-39Z"/>
      <path class="cls-2" d="M168.5,41.5c-.3,6.4,0,12.7,1,19,.6-.1.9-.5,1-1,13.3-7.7,23.5-4.7,30.5,9,.5,9,.7,18,.5,27h-6c.3-8.2,0-16.2-1-24-3.4-9.1-9.8-11.9-19-8.5-3,2.2-5,5-6,8.5-1,7.8-1.3,15.8-1,24h-6v-54h6Z"/>
      <path class="cls-2" d="M41.5,55.5v40h6c-2.1,1-4.4,1.3-7,1-.3-13.8,0-27.5,1-41Z"/>
      <path class="cls-2" d="M243.5,55.5c12.9-2.3,22,2.3,27.5,14,.5,9,.7,18,.5,27-8.7.2-17.3,0-26-.5-12.2-4.6-17.1-13.5-14.5-26.5,2.6-6.1,6.8-10.8,12.5-14Z"/>
      <path class="cls-2" d="M41.5,55.5h6c-.2,2,0,4,.5,6,6.9-6.6,14.7-7.8,23.5-3.5,1.8,1.8,3.7,3.7,5.5,5.5,7.7-8.4,16.9-10.3,27.5-5.5,4.5,3,7.2,7.2,8,12.5v25h-6c.2-8.3,0-16.7-.5-25-4.6-9.2-11.4-11.3-20.5-6.5-2.1,1.7-3.6,3.9-4.5,6.5-.5,8.3-.7,16.7-.5,25h-6c.3-7.9,0-15.5-1-23-2.2-9-7.8-12.5-17-10.5-4.2,1.5-7,4.3-8.5,8.5-.5,8.3-.7,16.7-.5,25h-6v-40Z"/>
      <path class="cls-2" d="M120.5,55.5v40h5v-40c1,13.5,1.3,27.2,1,41h-7c-.3-13.8,0-27.5,1-41Z"/>
      <path class="cls-2" d="M120.5,55.5h5v40h-5v-40Z"/>
      <path class="cls-2" d="M215.5,71.5c-1,7.8-1.3,15.8-1,24h-6v-23c2.5-11.1,9.5-16.8,21-17v6c-7.2,0-11.8,3.2-14,10Z"/>
      <path class="cls-1" d="M264.5,72.5v17h-16c-11.4-3.6-14.5-10.9-9.5-22,7.3-7.6,15-8,23-1,1.6,1.7,2.4,3.7,2.5,6Z"/>
      <path class="cls-2" d="M73.5,72.5c1,7.5,1.3,15.1,1,23h6c-2.1,1-4.4,1.3-7,1v-24Z"/>
      <path class="cls-2" d="M112.5,70.5c1,8.5,1.3,17.2,1,26-2.6.3-4.9,0-7-1h6v-25Z"/>
      <path class="cls-2" d="M169.5,71.5v25c-2.6.3-4.9,0-7-1h6c-.3-8.2,0-16.2,1-24Z"/>
      <path class="cls-2" d="M194.5,71.5c1,7.8,1.3,15.8,1,24h6c-2.1,1-4.4,1.3-7,1v-25Z"/>
      <path class="cls-2" d="M215.5,71.5v25h-8c-.3-8.2,0-16.2,1-24v23h6c-.3-8.2,0-16.2,1-24Z"/>
      <path class="cls-2" d="M264.5,72.5c1,5.8,1.3,11.8,1,18-5.9.3-11.5,0-17-1h16v-17Z"/>
      <path class="cls-2" d="M78.5,102.5c1,0,1.8.2,2.5,1,1.3,4.2,2.8,8.4,4.5,12.5-.3.5-.7,1-1,1.5-1.1-4.2-3.8-5.7-8-4.5-.7,1.1-1.2,2.2-1.5,3.5-.7,1-1.6,1.1-2.5.5,2.1-4.8,4.1-9.6,6-14.5Z"/>
      <path class="cls-2" d="M97.5,111.5c-1.8-1-3.8-1.3-6-1v7c-1-4.8-1.3-9.8-1-15,3-.2,6,0,9,.5l1.5,1.5c0,4.3-.2,8.7-.5,13-.5-2.5-1.5-4.5-3-6Z"/>
      <path class="cls-2" d="M161.5,104.5c-1,1.4-1.3,3.1-1,5h9c-2.4,1-5.1,1.3-8,1v5c3.1-.3,6.1,0,9,1-3.6,1-7.3,1.3-11,1v-15c3.7-.3,7.4,0,11,1-2.9,1-5.9,1.3-9,1Z"/>
      <path class="cls-2" d="M190.5,102.5c4.1-.3,8.1,0,12,1-1.5,1-3.2,1.3-5,1-.7,17.3-1.3,17.3-2,0-2.3.4-3.9-.2-5-2Z"/>
      <path class="cls-2" d="M217.5,102.5c4.1-.8,7.1.5,9,4-.3.3-.7.7-1,1-1.9-2.8-4.6-3.7-8-2.5-2.8,3.9-2.5,7.6,1,11,3.3.9,5.6-.3,7-3.5.8,1.8.1,3.3-2,4.5-3.5,1.1-6.3.3-8.5-2.5-1.2-4.6-.4-8.6,2.5-12Z"/>
      <path class="cls-2" d="M262.5,102.5c3.2-.5,6,.2,8.5,2,.7.8.5,1.5-.5,2-2.8-2.6-5.5-2.6-8,0,2.2,2,4.9,3.2,8,3.5,1.8,6.8-.9,9.2-8,7-1.9-1.2-2.3-2.7-1-4.5,3.9,5.7,6.6,5.3,8-1-3.1-.3-5.9-1.3-8.5-3-.4-2.2,0-4.2,1.5-6Z"/>
      <path class="cls-1" d="M91.5,104.5c2.4-.2,4.7,0,7,.5,1.3,1.3,1.3,2.7,0,4-2.3.5-4.6.7-7,.5v-5Z"/>
      <path class="cls-2" d="M106.5,102.5c1.3-.2,2.5.2,3.5,1,1.1,3.7,2.5,7.4,4,11,1.5-3.6,2.9-7.3,4-11,1-.8,2.2-1.2,3.5-1,.3,5,0,10-1,15-.5-15.7-2.2-15.7-5,0h-3c-.7-3.8-1.8-7.5-3.5-11-.2,3.7-.7,7.4-1.5,11-1-5-1.3-10-1-15Z"/>
      <path class="cls-2" d="M207.5,102.5c1.3,2.1,2,4.6,2,7.5-.3,2.5-.7,5-1,7.5-1-5-1.3-10-1-15Z"/>
      <path class="cls-2" d="M144.5,102.5c2.4-.2,4.7,0,7,.5,1.5.8,2,2,1.5,3.5-3.1-3.8-6.1-3.8-9,0-2,5.8-.1,8.9,5.5,9.5,1.5-1.4,2.9-2.9,4-4.5,1.2,2.3.6,4.2-2,5.5-8.3,1.4-11.4-2.1-9.5-10.5.7-1.5,1.5-2.8,2.5-4Z"/>
      <path class="cls-1" d="M78.5,105.5c2,1.4,3,3.4,3,6h-4c.3-2,.7-4,1-6Z"/>
      <path class="cls-2" d="M161.5,104.5v4c2.9-.3,5.6,0,8,1h-9c-.3-1.9,0-3.6,1-5Z"/>
      <path class="cls-2" d="M41.5,102.5c3-.2,6,0,9,.5,2.6,2.5,2.6,5,0,7.5-2.2.9-4.6,1.2-7,1,.3,2.1,0,4.1-1,6-1-5-1.3-10-1-15Z"/>
      <path class="cls-1" d="M43.5,104.5c2-.2,4,0,6,.5,1.3,1.3,1.3,2.7,0,4-2,.5-4,.7-6,.5v-5Z"/>
      <path class="cls-2" d="M57.5,102.5c1,1.8,1.3,3.8,1,6h8c-.3-2.1,0-4.1,1-6,1.3,5,1.3,10,0,15-1-2.2-1.3-4.6-1-7h-7c.3,2.4,0,4.8-1,7-1-5-1.3-10-1-15Z"/>
      <path class="cls-2" d="M97.5,111.5h-5c.3,2.2,0,4.2-1,6v-7c2.2-.3,4.2,0,6,1Z"/>
      <path class="cls-2" d="M130.5,102.5c1,0,1.8.2,2.5,1,1.6,4.6,3.5,9.1,5.5,13.5-.9.5-1.9.6-3,.5-.4-4.5-2.7-5.8-7-4-.5,1.4-1.1,2.8-2,4-.3-.5-.7-1-1-1.5,1.8-4.5,3.4-9,5-13.5Z"/>
      <path class="cls-1" d="M130.5,105.5c2.1,1.3,3.1,3.3,3,6h-4c.3-2,.7-4,1-6Z"/>
      <path class="cls-2" d="M235.5,102.5c1.2-.2,2.2.1,3,1,1.6,4.6,3.2,9.1,5,13.5-.7.7-1.3.7-2,0-1.1-4-3.7-5.5-8-4.5,0,1.4-.3,2.8-1,4-.7,1.3-1.3,1.3-2,0,2.1-4.5,3.7-9.2,5-14Z"/>
      <path class="cls-1" d="M236.5,105.5c1.3,1.6,2.3,3.4,3,5.5-1.8.8-3.4.6-5-.5,1-1.6,1.6-3.2,2-5Z"/>
      <path class="cls-2" d="M175.5,102.5c1.8,3.5,2.6,7.5,2.5,12,2,2.7,4,2.7,6,0,.2-4,.7-8,1.5-12,1.2,4.3,1.3,8.6.5,13-3.3,2.7-6.7,2.7-10,0-.5-4.3-.7-8.7-.5-13Z"/>
      <path class="cls-2" d="M247.5,102.5c1.9,3.9,2.6,8.2,2,13,2.4-.3,4.8,0,7,1-2.9,1-5.9,1.3-9,1v-15Z"/>
    </g>
  </g>
</svg>